<svg xmlns="http://www.w3.org/2000/svg" xmlns:xlink="http://www.w3.org/1999/xlink" width="365" zoomAndPan="magnify" viewBox="0 0 273.75 67.499998" height="90" preserveAspectRatio="xMidYMid meet" version="1.0"><defs><g/><clipPath id="7f61537345"><path d="M 12.613281 11.890625 L 55.792969 11.890625 L 55.792969 55.070312 L 12.613281 55.070312 Z M 12.613281 11.890625 " clip-rule="nonzero"/></clipPath></defs><g clip-path="url(#7f61537345)"><path fill="#0cc0df" d="M 34.222656 11.890625 C 22.289062 11.890625 12.613281 21.5625 12.613281 33.496094 C 12.613281 45.429688 22.289062 55.105469 34.222656 55.105469 C 46.15625 55.105469 55.828125 45.429688 55.828125 33.496094 C 55.828125 21.5625 46.15625 11.890625 34.222656 11.890625 Z M 35.246094 24.027344 C 36.011719 20.347656 39.777344 17.765625 41.871094 22.148438 C 43.671875 25.546875 39.195312 34.015625 35.777344 28.660156 C 34.953125 27.355469 34.902344 25.492188 35.246094 24.027344 Z M 26.574219 22.148438 C 28.664062 17.761719 32.4375 20.34375 33.195312 24.027344 C 33.542969 25.492188 33.492188 27.355469 32.667969 28.664062 C 29.246094 34.015625 24.773438 25.546875 26.574219 22.148438 Z M 19.902344 29.519531 C 21.46875 25.410156 25.058594 27.460938 26.019531 30.726562 C 26.4375 32.019531 26.53125 33.707031 25.878906 34.945312 C 23.1875 40.035156 18.527344 32.722656 19.902344 29.519531 Z M 41.894531 47.070312 C 41.308594 47.175781 40.6875 47.171875 40.070312 47.070312 C 39.003906 46.894531 37.933594 46.425781 37.054688 45.742188 C 36.984375 45.6875 36.914062 45.628906 36.839844 45.582031 C 35.847656 44.910156 35.03125 44.574219 34.21875 44.574219 C 33.402344 44.574219 32.585938 44.910156 31.597656 45.582031 C 31.519531 45.628906 31.449219 45.6875 31.382812 45.742188 C 30.5 46.429688 29.433594 46.894531 28.363281 47.070312 C 27.746094 47.171875 27.125 47.175781 26.539062 47.070312 C 24.558594 46.707031 23.261719 44.777344 23.625 42.792969 C 24.355469 38.777344 28.355469 33.394531 32.214844 31.765625 C 32.851562 31.496094 33.535156 31.359375 34.210938 31.359375 C 34.890625 31.359375 35.574219 31.496094 36.207031 31.765625 C 40.070312 33.394531 44.070312 38.777344 44.800781 42.792969 C 45.171875 44.777344 43.875 46.707031 41.894531 47.070312 Z M 42.570312 34.953125 C 41.917969 33.707031 42.007812 32.027344 42.429688 30.730469 C 43.390625 27.464844 46.980469 25.414062 48.546875 29.523438 C 49.917969 32.722656 45.253906 40.035156 42.570312 34.953125 Z M 42.570312 34.953125 " fill-opacity="1" fill-rule="nonzero"/></g><g fill="#000000" fill-opacity="0.4"><g transform="translate(62.978831, 53.535966)"><g><path d="M 31.4375 -30.628906 C 30.789062 -35.691406 22.714844 -35.742188 23.363281 -30.628906 C 24.117188 -24.707031 23.253906 -14.855469 16.957031 -11.84375 C 10.175781 -8.613281 10.660156 -27.9375 10.875 -31.167969 C 11.25 -36.335938 3.175781 -36.28125 2.800781 -31.167969 C 2.152344 -22.070312 3.121094 -1.128906 17.28125 -3.554688 C 28.746094 -5.492188 32.675781 -20.941406 31.4375 -30.628906 Z M 31.4375 -30.628906 "/></g></g></g><g fill="#000000" fill-opacity="0.4"><g transform="translate(97.315283, 53.535966)"><g><path d="M 23.683594 -32.675781 C 22.824219 -26.859375 21.800781 -21.046875 20.726562 -15.289062 L 15.933594 -26.269531 C 14.535156 -29.554688 9.421875 -28.367188 8.558594 -25.300781 C 6.296875 -16.902344 4.359375 -8.398438 2.746094 0.109375 C 1.777344 5.222656 9.582031 7.375 10.550781 2.261719 C 11.410156 -2.421875 12.433594 -7.105469 13.511719 -11.789062 C 15.234375 -7.859375 16.902344 -3.984375 18.625 -0.0546875 C 20.023438 3.175781 25.300781 2.207031 26 -1.023438 C 28.152344 -10.765625 29.984375 -20.617188 31.4375 -30.523438 C 32.191406 -35.582031 24.386719 -37.789062 23.683594 -32.675781 Z M 23.683594 -32.675781 "/></g></g></g><g fill="#000000" fill-opacity="0.4"><g transform="translate(131.544102, 53.535966)"><g><path d="M 5.113281 -33.160156 C 4.039062 -23.46875 3.230469 -13.726562 2.691406 -3.984375 C 2.367188 1.238281 10.441406 1.183594 10.765625 -3.984375 C 11.304688 -13.726562 12.113281 -23.46875 13.1875 -33.160156 C 13.726562 -38.328125 5.652344 -38.328125 5.113281 -33.160156 Z M 5.113281 -33.160156 "/></g></g></g><g fill="#000000" fill-opacity="0.4"><g transform="translate(147.474482, 53.535966)"><g><path d="M 21.746094 -36.765625 C 18.464844 -38.058594 14.589844 -38.597656 11.25 -37.359375 C 7.429688 -35.90625 6.082031 -32.675781 5.652344 -28.851562 C 4.523438 -19.21875 3.660156 -9.527344 2.691406 0.109375 C 2.152344 5.273438 10.226562 5.273438 10.765625 0.109375 C 11.195312 -3.984375 11.574219 -8.074219 12.003906 -12.113281 C 19.003906 -10.496094 27.023438 -13.082031 30.253906 -19.917969 C 33.804688 -27.347656 28.582031 -34.019531 21.746094 -36.765625 Z M 12.867188 -20.292969 C 13.027344 -21.800781 13.132812 -23.363281 13.296875 -24.871094 C 13.402344 -26 13.242188 -27.882812 13.726562 -28.851562 C 14.210938 -29.875 13.617188 -29.660156 14.804688 -29.984375 C 17.546875 -30.789062 23.632812 -27.722656 23.363281 -24.601562 C 22.984375 -19.648438 16.417969 -19.21875 12.867188 -20.292969 Z M 12.867188 -20.292969 "/></g></g></g><g fill="#000000" fill-opacity="0.4"><g transform="translate(181.595644, 53.535966)"><g><path d="M 22.445312 -11.410156 C 18.734375 -11.574219 15.019531 -11.410156 11.359375 -11.089844 C 11.628906 -13.132812 11.949219 -15.179688 12.21875 -17.226562 C 14.050781 -17.226562 15.878906 -17.171875 17.710938 -16.957031 C 19.917969 -16.742188 21.746094 -18.949219 21.746094 -20.992188 C 21.746094 -23.363281 19.917969 -24.816406 17.710938 -25.03125 C 16.3125 -25.191406 14.910156 -25.246094 13.457031 -25.300781 C 13.78125 -27.347656 14.15625 -29.445312 14.480469 -31.542969 C 17.226562 -31.542969 19.917969 -31.4375 22.664062 -31.273438 C 27.832031 -30.898438 27.832031 -38.972656 22.664062 -39.351562 C 18.785156 -39.617188 14.855469 -39.671875 10.980469 -39.511719 C 9.472656 -39.511719 8.398438 -38.757812 7.75 -37.734375 C 7.480469 -37.304688 7.265625 -36.765625 7.160156 -36.175781 C 5.382812 -26.269531 3.929688 -16.363281 2.691406 -6.460938 C 2.316406 -3.554688 5.542969 -2.207031 7.804688 -2.53125 C 12.648438 -3.335938 17.546875 -3.554688 22.445312 -3.335938 C 27.613281 -3.121094 27.613281 -11.195312 22.445312 -11.410156 Z M 22.445312 -11.410156 "/></g></g></g><g fill="#000000" fill-opacity="0.4"><g transform="translate(210.8193, 53.535966)"><g><path d="M 24.492188 -37.035156 C 18.519531 -37.789062 12.542969 -37.898438 6.511719 -37.304688 C 1.398438 -36.765625 1.347656 -28.691406 6.511719 -29.230469 C 8.128906 -29.390625 9.6875 -29.5 11.25 -29.554688 C 10.765625 -21.695312 10.335938 -13.78125 9.851562 -5.921875 C 9.527344 -0.753906 17.601562 -0.753906 17.925781 -5.921875 C 18.410156 -13.78125 18.839844 -21.585938 19.324219 -29.445312 C 21.046875 -29.335938 22.769531 -29.175781 24.492188 -28.960938 C 29.660156 -28.316406 29.605469 -36.390625 24.492188 -37.035156 Z M 24.492188 -37.035156 "/></g></g></g><g fill="#0cc0df" fill-opacity="1"><g transform="translate(60.599268, 51.156404)"><g><path d="M 31.4375 -30.628906 C 30.789062 -35.691406 22.714844 -35.742188 23.363281 -30.628906 C 24.117188 -24.707031 23.253906 -14.855469 16.957031 -11.84375 C 10.175781 -8.613281 10.660156 -27.9375 10.875 -31.167969 C 11.25 -36.335938 3.175781 -36.28125 2.800781 -31.167969 C 2.152344 -22.070312 3.121094 -1.128906 17.28125 -3.554688 C 28.746094 -5.492188 32.675781 -20.941406 31.4375 -30.628906 Z M 31.4375 -30.628906 "/></g></g></g><g fill="#0cc0df" fill-opacity="1"><g transform="translate(94.93572, 51.156404)"><g><path d="M 23.683594 -32.675781 C 22.824219 -26.859375 21.800781 -21.046875 20.726562 -15.289062 L 15.933594 -26.269531 C 14.535156 -29.554688 9.421875 -28.367188 8.558594 -25.300781 C 6.296875 -16.902344 4.359375 -8.398438 2.746094 0.109375 C 1.777344 5.222656 9.582031 7.375 10.550781 2.261719 C 11.410156 -2.421875 12.433594 -7.105469 13.511719 -11.789062 C 15.234375 -7.859375 16.902344 -3.984375 18.625 -0.0546875 C 20.023438 3.175781 25.300781 2.207031 26 -1.023438 C 28.152344 -10.765625 29.984375 -20.617188 31.4375 -30.523438 C 32.191406 -35.582031 24.386719 -37.789062 23.683594 -32.675781 Z M 23.683594 -32.675781 "/></g></g></g><g fill="#0cc0df" fill-opacity="1"><g transform="translate(129.164539, 51.156404)"><g><path d="M 5.113281 -33.160156 C 4.039062 -23.46875 3.230469 -13.726562 2.691406 -3.984375 C 2.367188 1.238281 10.441406 1.183594 10.765625 -3.984375 C 11.304688 -13.726562 12.113281 -23.46875 13.1875 -33.160156 C 13.726562 -38.328125 5.652344 -38.328125 5.113281 -33.160156 Z M 5.113281 -33.160156 "/></g></g></g><g fill="#0cc0df" fill-opacity="1"><g transform="translate(145.094919, 51.156404)"><g><path d="M 21.746094 -36.765625 C 18.464844 -38.058594 14.589844 -38.597656 11.25 -37.359375 C 7.429688 -35.90625 6.082031 -32.675781 5.652344 -28.851562 C 4.523438 -19.21875 3.660156 -9.527344 2.691406 0.109375 C 2.152344 5.273438 10.226562 5.273438 10.765625 0.109375 C 11.195312 -3.984375 11.574219 -8.074219 12.003906 -12.113281 C 19.003906 -10.496094 27.023438 -13.082031 30.253906 -19.917969 C 33.804688 -27.347656 28.582031 -34.019531 21.746094 -36.765625 Z M 12.867188 -20.292969 C 13.027344 -21.800781 13.132812 -23.363281 13.296875 -24.871094 C 13.402344 -26 13.242188 -27.882812 13.726562 -28.851562 C 14.210938 -29.875 13.617188 -29.660156 14.804688 -29.984375 C 17.546875 -30.789062 23.632812 -27.722656 23.363281 -24.601562 C 22.984375 -19.648438 16.417969 -19.21875 12.867188 -20.292969 Z M 12.867188 -20.292969 "/></g></g></g><g fill="#0cc0df" fill-opacity="1"><g transform="translate(179.216081, 51.156404)"><g><path d="M 22.445312 -11.410156 C 18.734375 -11.574219 15.019531 -11.410156 11.359375 -11.089844 C 11.628906 -13.132812 11.949219 -15.179688 12.21875 -17.226562 C 14.050781 -17.226562 15.878906 -17.171875 17.710938 -16.957031 C 19.917969 -16.742188 21.746094 -18.949219 21.746094 -20.992188 C 21.746094 -23.363281 19.917969 -24.816406 17.710938 -25.03125 C 16.3125 -25.191406 14.910156 -25.246094 13.457031 -25.300781 C 13.78125 -27.347656 14.15625 -29.445312 14.480469 -31.542969 C 17.226562 -31.542969 19.917969 -31.4375 22.664062 -31.273438 C 27.832031 -30.898438 27.832031 -38.972656 22.664062 -39.351562 C 18.785156 -39.617188 14.855469 -39.671875 10.980469 -39.511719 C 9.472656 -39.511719 8.398438 -38.757812 7.75 -37.734375 C 7.480469 -37.304688 7.265625 -36.765625 7.160156 -36.175781 C 5.382812 -26.269531 3.929688 -16.363281 2.691406 -6.460938 C 2.316406 -3.554688 5.542969 -2.207031 7.804688 -2.53125 C 12.648438 -3.335938 17.546875 -3.554688 22.445312 -3.335938 C 27.613281 -3.121094 27.613281 -11.195312 22.445312 -11.410156 Z M 22.445312 -11.410156 "/></g></g></g><g fill="#0cc0df" fill-opacity="1"><g transform="translate(208.439737, 51.156404)"><g><path d="M 24.492188 -37.035156 C 18.519531 -37.789062 12.542969 -37.898438 6.511719 -37.304688 C 1.398438 -36.765625 1.347656 -28.691406 6.511719 -29.230469 C 8.128906 -29.390625 9.6875 -29.5 11.25 -29.554688 C 10.765625 -21.695312 10.335938 -13.78125 9.851562 -5.921875 C 9.527344 -0.753906 17.601562 -0.753906 17.925781 -5.921875 C 18.410156 -13.78125 18.839844 -21.585938 19.324219 -29.445312 C 21.046875 -29.335938 22.769531 -29.175781 24.492188 -28.960938 C 29.660156 -28.316406 29.605469 -36.390625 24.492188 -37.035156 Z M 24.492188 -37.035156 "/></g></g></g></svg>