<svg xmlns="http://www.w3.org/2000/svg" xmlns:xlink="http://www.w3.org/1999/xlink" width="380" zoomAndPan="magnify" viewBox="0 0 285 135.000003" height="180" preserveAspectRatio="xMidYMid meet" version="1.0"><defs><g/><clipPath id="a126748068"><path d="M 23 24.023438 L 261.828125 24.023438 L 261.828125 125.273438 L 23 125.273438 Z M 23 24.023438 " clip-rule="nonzero"/></clipPath><clipPath id="0547229bab"><path d="M 23 21.621094 L 261.828125 21.621094 L 261.828125 122.871094 L 23 122.871094 Z M 23 21.621094 " clip-rule="nonzero"/></clipPath><clipPath id="3dd6821386"><path d="M 201 94 L 262 94 L 262 120.570312 L 201 120.570312 Z M 201 94 " clip-rule="nonzero"/></clipPath><clipPath id="f6d6b67f1a"><path d="M 235 85.578125 L 240 85.578125 L 240 93 L 235 93 Z M 235 85.578125 " clip-rule="nonzero"/></clipPath><clipPath id="48c676d6ab"><path d="M 20 30 L 81 30 L 81 56.613281 L 20 56.613281 Z M 20 30 " clip-rule="nonzero"/></clipPath><clipPath id="ae47e802ea"><path d="M 54 21.621094 L 59 21.621094 L 59 29 L 54 29 Z M 54 21.621094 " clip-rule="nonzero"/></clipPath></defs><path fill="#d9d9d9" d="M 256.839844 111.664062 C 257.183594 110.964844 257.476562 110.238281 257.746094 109.5 C 253.515625 117.925781 244.832031 123.726562 234.761719 123.769531 C 221.828125 123.804688 211.183594 114.304688 209.257812 101.890625 L 75.675781 101.078125 C 73.605469 113.464844 62.84375 122.839844 49.910156 122.648438 C 47.292969 122.613281 44.785156 122.175781 42.421875 121.417969 C 43.042969 121.769531 43.644531 122.144531 44.289062 122.445312 C 33.726562 119.914062 25.804688 110.90625 24.6875 99.941406 C 24.59375 99.140625 24.527344 98.332031 24.511719 97.515625 C 24.503906 97.320312 24.464844 97.132812 24.46875 96.9375 L 24.480469 96.761719 C 24.480469 96.644531 24.464844 96.535156 24.472656 96.425781 C 24.632812 86.636719 30.28125 78.328125 38.375 74.074219 C 30.425781 69.566406 25.042969 61.097656 25.199219 51.304688 C 25.191406 51.214844 25.207031 51.132812 25.210938 51.042969 C 25.207031 50.957031 25.199219 50.875 25.199219 50.789062 C 25.429688 36.539062 37.164062 25.144531 51.417969 25.378906 C 64.296875 25.582031 74.730469 35.195312 76.484375 47.53125 L 209.097656 48.335938 C 211.007812 36.015625 221.554688 26.535156 234.429688 26.484375 C 248.707031 26.425781 260.285156 37.960938 260.347656 52.21875 C 260.34375 52.300781 260.332031 52.382812 260.324219 52.476562 C 260.335938 52.5625 260.34375 52.644531 260.34375 52.730469 C 260.351562 56.191406 259.632812 59.453125 258.414062 62.460938 C 258.507812 62.097656 258.546875 61.722656 258.632812 61.355469 C 256.382812 67.273438 252.042969 72.148438 246.472656 75.082031 C 254.742188 79.359375 260.484375 87.894531 260.519531 97.847656 C 260.519531 97.960938 260.507812 98.070312 260.492188 98.175781 C 260.503906 98.234375 260.515625 98.296875 260.515625 98.359375 C 260.511719 98.742188 260.453125 99.09375 260.433594 99.46875 C 260.417969 99.890625 260.402344 100.316406 260.351562 100.734375 C 259.992188 104.699219 258.78125 108.421875 256.839844 111.664062 " fill-opacity="1" fill-rule="evenodd"/><g clip-path="url(#a126748068)"><path fill="#d9d9d9" d="M 256.839844 111.664062 L 258.0625 112.265625 C 258.433594 111.507812 258.746094 110.742188 259.027344 109.96875 C 259.277344 109.289062 258.949219 108.535156 258.289062 108.25 C 257.621094 107.960938 256.851562 108.242188 256.527344 108.886719 C 252.515625 116.871094 244.296875 122.367188 234.753906 122.402344 L 234.761719 122.402344 L 234.691406 122.402344 C 228.578125 122.402344 223.023438 120.160156 218.753906 116.449219 C 214.484375 112.734375 211.515625 107.554688 210.605469 101.683594 C 210.5 101.019531 209.933594 100.53125 209.265625 100.527344 L 75.683594 99.714844 C 75.011719 99.707031 74.441406 100.191406 74.328125 100.851562 C 73.359375 106.664062 70.371094 111.773438 66.117188 115.429688 C 61.855469 119.085938 56.34375 121.289062 50.296875 121.289062 C 50.175781 121.289062 50.050781 121.289062 49.925781 121.285156 C 47.453125 121.25 45.082031 120.835938 42.839844 120.117188 C 42.171875 119.90625 41.453125 120.230469 41.171875 120.867188 C 40.894531 121.511719 41.140625 122.257812 41.75 122.605469 C 42.339844 122.933594 42.96875 123.335938 43.714844 123.679688 L 44.289062 122.445312 L 44.605469 121.117188 C 34.609375 118.722656 27.101562 110.191406 26.042969 99.800781 L 26.039062 99.78125 C 25.953125 99.015625 25.890625 98.25 25.875 97.484375 L 25.875 97.46875 C 25.867188 97.300781 25.851562 97.175781 25.84375 97.089844 C 25.832031 97.011719 25.832031 96.972656 25.832031 96.972656 L 25.832031 96.964844 L 24.832031 96.964844 L 25.832031 97.035156 L 25.832031 96.964844 L 24.832031 96.964844 L 25.832031 97.035156 L 24.46875 96.9375 L 25.828125 97.050781 L 25.84375 96.875 L 25.847656 96.761719 C 25.847656 96.644531 25.839844 96.5625 25.835938 96.511719 L 25.832031 96.460938 L 25.832031 96.457031 L 25.589844 96.464844 L 25.832031 96.464844 L 25.832031 96.457031 L 25.589844 96.464844 L 25.832031 96.464844 L 25.035156 96.464844 L 25.832031 96.523438 L 25.832031 96.464844 L 25.035156 96.464844 L 25.832031 96.523438 L 25.832031 96.445312 C 25.914062 91.808594 27.285156 87.539062 29.601562 83.910156 C 31.914062 80.28125 35.171875 77.300781 39.011719 75.28125 C 39.453125 75.050781 39.730469 74.597656 39.738281 74.097656 C 39.75 73.597656 39.484375 73.136719 39.050781 72.886719 C 35.332031 70.78125 32.207031 67.761719 30.015625 64.132812 C 27.820312 60.503906 26.558594 56.277344 26.558594 51.722656 C 26.558594 51.589844 26.558594 51.460938 26.5625 51.335938 L 26.558594 51.214844 L 25.863281 51.261719 L 26.558594 51.261719 L 26.558594 51.214844 L 25.863281 51.261719 L 26.5625 51.261719 C 26.5625 51.238281 26.566406 51.1875 26.574219 51.109375 L 26.574219 51 C 26.570312 50.921875 26.566406 50.867188 26.566406 50.839844 L 26.5625 50.808594 L 26.292969 50.816406 L 26.5625 50.816406 L 26.5625 50.808594 L 26.292969 50.816406 L 26.5625 50.816406 L 26.5625 50.808594 L 25.433594 50.808594 L 26.558594 50.910156 C 26.566406 50.84375 26.5625 50.808594 26.5625 50.808594 L 25.433594 50.808594 L 26.558594 50.910156 L 26.5625 50.808594 C 26.777344 37.449219 37.671875 26.738281 50.984375 26.738281 C 51.121094 26.738281 51.257812 26.738281 51.394531 26.742188 C 57.5 26.839844 63.007812 29.160156 67.214844 32.925781 C 71.417969 36.6875 74.300781 41.882812 75.132812 47.722656 C 75.226562 48.394531 75.800781 48.894531 76.472656 48.898438 L 209.089844 49.699219 C 209.765625 49.703125 210.34375 49.210938 210.445312 48.546875 C 211.351562 42.710938 214.300781 37.546875 218.546875 33.835938 C 222.796875 30.125 228.332031 27.871094 234.433594 27.847656 L 234.535156 27.847656 C 248.007812 27.84375 258.921875 38.75 258.984375 52.222656 L 260.347656 52.21875 L 258.984375 52.175781 L 259.339844 52.183594 L 258.984375 52.160156 L 258.984375 52.175781 L 259.339844 52.183594 L 258.984375 52.160156 L 258.984375 52.171875 C 258.984375 52.199219 258.96875 52.285156 258.964844 52.417969 L 258.96875 52.5625 C 258.96875 52.640625 258.976562 52.695312 258.976562 52.71875 L 258.980469 52.730469 L 259.390625 52.707031 L 258.980469 52.707031 L 258.980469 52.730469 L 259.390625 52.707031 L 258.980469 52.707031 L 259.664062 52.707031 L 258.980469 52.703125 L 258.980469 52.707031 L 259.664062 52.707031 L 258.980469 52.703125 L 258.980469 52.796875 C 258.976562 56.042969 258.304688 59.105469 257.152344 61.945312 L 258.414062 62.460938 L 259.734375 62.804688 C 259.863281 62.304688 259.898438 61.914062 259.960938 61.648438 C 260.117188 60.953125 259.707031 60.253906 259.019531 60.046875 C 258.335938 59.84375 257.609375 60.199219 257.355469 60.871094 C 255.226562 66.472656 251.113281 71.09375 245.835938 73.875 C 245.386719 74.109375 245.105469 74.578125 245.109375 75.085938 C 245.109375 75.59375 245.394531 76.058594 245.84375 76.292969 C 249.765625 78.320312 253.089844 81.359375 255.429688 85.066406 C 257.773438 88.769531 259.136719 93.136719 259.152344 97.851562 L 259.152344 97.847656 L 259.152344 97.863281 C 259.15625 97.863281 259.152344 97.902344 259.140625 97.988281 C 259.125 98.117188 259.125 98.226562 259.140625 98.351562 C 259.152344 98.4375 259.160156 98.472656 259.160156 98.472656 L 259.9375 98.351562 L 259.152344 98.351562 C 259.152344 98.433594 259.160156 98.472656 259.160156 98.472656 L 259.9375 98.351562 L 259.152344 98.351562 L 260.402344 98.351562 L 259.152344 98.332031 L 259.152344 98.351562 L 260.402344 98.351562 L 259.152344 98.332031 C 259.152344 98.332031 259.144531 98.40625 259.160156 98.535156 L 260.515625 98.359375 L 259.152344 98.347656 C 259.152344 98.585938 259.097656 98.925781 259.070312 99.410156 C 259.054688 99.839844 259.039062 100.230469 258.996094 100.566406 L 258.992188 100.613281 C 258.648438 104.375 257.5 107.898438 255.664062 110.964844 L 256.839844 111.664062 L 258.0625 112.265625 L 256.839844 111.664062 L 258.007812 112.367188 C 260.058594 108.941406 261.332031 105.019531 261.710938 100.855469 L 260.351562 100.734375 L 261.703125 100.902344 C 261.765625 100.402344 261.78125 99.941406 261.796875 99.527344 C 261.804688 99.261719 261.871094 98.890625 261.878906 98.375 L 261.867188 98.1875 L 260.542969 98.355469 L 261.878906 98.355469 C 261.878906 98.328125 261.878906 98.269531 261.867188 98.1875 L 260.542969 98.355469 L 261.878906 98.355469 L 260.628906 98.355469 L 261.878906 98.378906 L 261.878906 98.355469 L 260.628906 98.355469 L 261.878906 98.378906 L 261.878906 98.351562 C 261.878906 98.210938 261.863281 98.109375 261.851562 98.050781 L 261.84375 97.992188 L 261.84375 97.988281 L 261.410156 98.054688 L 261.84375 97.996094 L 261.84375 97.988281 L 261.410156 98.054688 L 261.84375 97.996094 L 260.492188 98.175781 L 261.84375 98.359375 C 261.859375 98.246094 261.882812 98.082031 261.882812 97.863281 L 261.882812 97.84375 C 261.867188 92.605469 260.34375 87.726562 257.738281 83.605469 C 255.132812 79.484375 251.445312 76.121094 247.097656 73.867188 L 246.472656 75.082031 L 247.105469 76.289062 C 252.96875 73.199219 257.539062 68.070312 259.90625 61.84375 L 258.632812 61.355469 L 257.300781 61.0625 C 257.199219 61.53125 257.15625 61.890625 257.097656 62.113281 C 256.914062 62.808594 257.300781 63.527344 257.984375 63.753906 C 258.667969 63.980469 259.410156 63.640625 259.679688 62.972656 C 260.949219 59.84375 261.710938 56.425781 261.707031 52.796875 L 261.707031 52.730469 L 261.066406 52.730469 L 261.707031 52.734375 L 261.707031 52.730469 L 261.066406 52.730469 L 261.707031 52.734375 L 261.710938 52.707031 C 261.703125 52.492188 261.683594 52.394531 261.6875 52.394531 L 260.324219 52.476562 L 261.691406 52.535156 L 261.640625 52.535156 L 261.691406 52.535156 L 261.640625 52.535156 L 261.691406 52.535156 C 261.6875 52.53125 261.703125 52.449219 261.710938 52.257812 L 261.710938 52.207031 C 261.640625 37.242188 249.519531 25.117188 234.535156 25.117188 L 234.425781 25.117188 C 227.652344 25.144531 221.472656 27.660156 216.753906 31.78125 C 212.03125 35.902344 208.753906 41.640625 207.75 48.125 L 209.097656 48.335938 L 209.105469 46.96875 L 76.492188 46.167969 L 76.484375 47.53125 L 77.832031 47.339844 C 76.910156 40.847656 73.707031 35.070312 69.035156 30.890625 C 64.363281 26.710938 58.214844 24.121094 51.4375 24.011719 L 51.441406 24.011719 C 51.285156 24.011719 51.132812 24.011719 50.984375 24.011719 C 36.175781 24.011719 24.078125 35.917969 23.835938 50.765625 L 25.199219 50.789062 L 23.839844 50.667969 L 23.835938 50.785156 L 23.835938 50.816406 C 23.835938 51 23.847656 51.085938 23.847656 51.085938 L 25.210938 51.042969 L 23.847656 50.976562 L 23.84375 51.042969 C 23.839844 51.089844 23.832031 51.164062 23.832031 51.261719 L 23.835938 51.394531 L 25.199219 51.304688 L 23.835938 51.277344 C 23.832031 51.429688 23.832031 51.582031 23.832031 51.722656 C 23.828125 56.785156 25.238281 61.511719 27.679688 65.542969 C 30.117188 69.578125 33.585938 72.925781 37.703125 75.261719 L 38.375 74.074219 L 37.742188 72.867188 C 33.488281 75.101562 29.875 78.402344 27.296875 82.441406 C 24.722656 86.476562 23.1875 91.25 23.105469 96.402344 L 24.472656 96.425781 L 23.109375 96.324219 C 23.105469 96.394531 23.105469 96.441406 23.105469 96.464844 C 23.105469 96.582031 23.113281 96.664062 23.113281 96.714844 L 23.117188 96.761719 L 24.480469 96.761719 L 23.121094 96.648438 L 23.109375 96.824219 L 23.105469 96.839844 C 23.101562 96.929688 23.105469 96.972656 23.105469 96.972656 C 23.109375 97.34375 23.152344 97.535156 23.148438 97.558594 L 24.511719 97.515625 L 23.148438 97.542969 C 23.164062 98.414062 23.234375 99.265625 23.332031 100.09375 L 24.6875 99.941406 L 23.328125 100.078125 C 24.503906 111.621094 32.839844 121.105469 43.972656 123.769531 C 44.652344 123.933594 45.347656 123.550781 45.578125 122.890625 C 45.808594 122.226562 45.496094 121.496094 44.863281 121.203125 C 44.316406 120.953125 43.75 120.601562 43.097656 120.230469 L 42.421875 121.417969 L 42.003906 122.714844 C 44.492188 123.511719 47.136719 123.976562 49.886719 124.011719 C 50.023438 124.015625 50.160156 124.015625 50.296875 124.015625 C 57.011719 124.019531 63.164062 121.566406 67.894531 117.5 C 72.625 113.433594 75.945312 107.753906 77.019531 101.300781 L 75.675781 101.078125 L 75.667969 102.441406 L 209.246094 103.253906 L 209.257812 101.890625 L 207.90625 102.101562 C 208.921875 108.621094 212.21875 114.378906 216.960938 118.503906 C 221.703125 122.632812 227.902344 125.136719 234.691406 125.132812 L 234.765625 125.132812 C 245.367188 125.089844 254.515625 118.976562 258.964844 110.113281 L 257.746094 109.5 L 256.464844 109.03125 C 256.203125 109.742188 255.925781 110.421875 255.613281 111.0625 C 255.289062 111.722656 255.539062 112.511719 256.183594 112.863281 C 256.828125 113.214844 257.628906 112.996094 258.007812 112.367188 L 256.839844 111.664062 " fill-opacity="1" fill-rule="nonzero"/></g><path fill="#0cc0df" d="M 256.839844 109.261719 C 257.183594 108.5625 257.476562 107.835938 257.746094 107.097656 C 253.515625 115.523438 244.832031 121.328125 234.761719 121.367188 C 221.828125 121.402344 211.183594 111.902344 209.257812 99.488281 L 75.675781 98.675781 C 73.605469 111.066406 62.84375 120.4375 49.910156 120.246094 C 47.292969 120.210938 44.785156 119.773438 42.421875 119.015625 C 43.042969 119.367188 43.644531 119.742188 44.289062 120.042969 C 33.726562 117.511719 25.804688 108.503906 24.6875 97.539062 C 24.59375 96.738281 24.527344 95.929688 24.511719 95.113281 C 24.503906 94.917969 24.464844 94.734375 24.46875 94.535156 L 24.480469 94.359375 C 24.480469 94.246094 24.464844 94.132812 24.472656 94.023438 C 24.632812 84.234375 30.28125 75.925781 38.375 71.675781 C 30.425781 67.164062 25.042969 58.695312 25.199219 48.902344 C 25.191406 48.8125 25.207031 48.730469 25.210938 48.640625 C 25.207031 48.554688 25.199219 48.472656 25.199219 48.386719 C 25.429688 34.136719 37.164062 22.742188 51.417969 22.976562 C 64.296875 23.179688 74.730469 32.796875 76.484375 45.128906 L 209.097656 45.933594 C 211.007812 33.613281 221.554688 24.132812 234.429688 24.082031 C 248.707031 24.023438 260.285156 35.558594 260.347656 49.816406 C 260.34375 49.902344 260.332031 49.980469 260.324219 50.078125 C 260.335938 50.160156 260.34375 50.242188 260.34375 50.328125 C 260.351562 53.792969 259.632812 57.054688 258.414062 60.058594 C 258.507812 59.695312 258.546875 59.320312 258.632812 58.957031 C 256.382812 64.871094 252.042969 69.746094 246.472656 72.679688 C 254.742188 76.957031 260.484375 85.492188 260.519531 95.445312 C 260.519531 95.558594 260.507812 95.667969 260.492188 95.773438 C 260.503906 95.832031 260.515625 95.894531 260.515625 95.957031 C 260.511719 96.339844 260.453125 96.695312 260.433594 97.066406 C 260.417969 97.492188 260.402344 97.914062 260.351562 98.332031 C 259.992188 102.296875 258.78125 106.019531 256.839844 109.261719 " fill-opacity="1" fill-rule="evenodd"/><g clip-path="url(#0547229bab)"><path fill="#ffffff" d="M 256.839844 109.261719 L 258.0625 109.867188 C 258.433594 109.105469 258.746094 108.339844 259.027344 107.570312 C 259.277344 106.890625 258.949219 106.136719 258.289062 105.847656 C 257.621094 105.558594 256.851562 105.839844 256.527344 106.488281 C 252.515625 114.46875 244.296875 119.964844 234.753906 120.003906 L 234.761719 120.003906 L 234.691406 120.003906 C 228.578125 120.003906 223.023438 117.757812 218.753906 114.046875 C 214.484375 110.332031 211.515625 105.152344 210.605469 99.28125 C 210.5 98.617188 209.933594 98.128906 209.265625 98.125 L 75.683594 97.3125 C 75.011719 97.304688 74.441406 97.789062 74.328125 98.449219 C 73.359375 104.261719 70.371094 109.371094 66.117188 113.027344 C 61.855469 116.683594 56.34375 118.886719 50.296875 118.886719 C 50.175781 118.886719 50.050781 118.886719 49.925781 118.882812 C 47.453125 118.847656 45.082031 118.433594 42.839844 117.714844 C 42.171875 117.503906 41.453125 117.828125 41.171875 118.46875 C 40.894531 119.109375 41.140625 119.855469 41.75 120.203125 C 42.339844 120.53125 42.96875 120.933594 43.714844 121.277344 L 44.289062 120.042969 L 44.605469 118.714844 C 34.609375 116.324219 27.101562 107.789062 26.042969 97.398438 L 26.039062 97.382812 C 25.953125 96.613281 25.890625 95.847656 25.875 95.085938 L 25.875 95.066406 C 25.867188 94.898438 25.851562 94.773438 25.84375 94.691406 C 25.832031 94.609375 25.832031 94.574219 25.832031 94.574219 L 25.832031 94.5625 L 24.832031 94.5625 L 25.832031 94.632812 L 25.832031 94.5625 L 24.832031 94.5625 L 25.832031 94.632812 L 24.46875 94.535156 L 25.828125 94.648438 L 25.84375 94.472656 L 25.847656 94.359375 C 25.847656 94.246094 25.839844 94.160156 25.835938 94.113281 L 25.832031 94.0625 L 25.832031 94.054688 L 25.589844 94.0625 L 25.832031 94.0625 L 25.832031 94.054688 L 25.589844 94.0625 L 25.832031 94.0625 L 25.035156 94.0625 L 25.832031 94.121094 L 25.832031 94.0625 L 25.035156 94.0625 L 25.832031 94.121094 L 25.832031 94.042969 C 25.914062 89.410156 27.285156 85.136719 29.601562 81.507812 C 31.914062 77.878906 35.171875 74.898438 39.011719 72.882812 C 39.453125 72.648438 39.730469 72.195312 39.738281 71.695312 C 39.75 71.195312 39.484375 70.734375 39.050781 70.484375 C 35.332031 68.378906 32.207031 65.359375 30.015625 61.730469 C 27.820312 58.101562 26.558594 53.875 26.558594 49.324219 C 26.558594 49.1875 26.558594 49.058594 26.5625 48.933594 L 26.558594 48.8125 L 25.863281 48.859375 L 26.558594 48.859375 L 26.558594 48.8125 L 25.863281 48.859375 L 26.5625 48.859375 C 26.5625 48.835938 26.566406 48.785156 26.574219 48.707031 L 26.574219 48.597656 C 26.570312 48.519531 26.566406 48.46875 26.566406 48.4375 L 26.5625 48.410156 L 26.5625 48.40625 L 26.292969 48.414062 L 26.5625 48.414062 L 26.5625 48.40625 L 26.292969 48.414062 L 26.5625 48.414062 L 26.5625 48.40625 L 25.433594 48.40625 L 26.558594 48.507812 C 26.566406 48.441406 26.5625 48.410156 26.5625 48.40625 L 25.433594 48.40625 L 26.558594 48.507812 L 26.5625 48.410156 C 26.777344 35.046875 37.671875 24.335938 50.984375 24.335938 C 51.121094 24.335938 51.257812 24.335938 51.394531 24.339844 C 57.5 24.4375 63.007812 26.761719 67.214844 30.523438 C 71.417969 34.285156 74.300781 39.480469 75.132812 45.324219 C 75.226562 45.992188 75.800781 46.492188 76.472656 46.496094 L 209.089844 47.296875 C 209.765625 47.300781 210.34375 46.808594 210.445312 46.144531 C 211.351562 40.308594 214.300781 35.144531 218.546875 31.433594 C 222.796875 27.722656 228.332031 25.46875 234.433594 25.445312 L 234.535156 25.445312 C 248.007812 25.445312 258.921875 36.351562 258.984375 49.820312 L 260.347656 49.816406 L 258.984375 49.773438 L 259.339844 49.785156 L 258.984375 49.757812 L 258.984375 49.773438 L 259.339844 49.785156 L 258.984375 49.757812 L 258.984375 49.769531 C 258.984375 49.796875 258.96875 49.882812 258.964844 50.019531 L 258.96875 50.160156 C 258.96875 50.238281 258.976562 50.292969 258.976562 50.316406 L 258.980469 50.328125 L 259.390625 50.304688 L 258.980469 50.304688 L 258.980469 50.328125 L 259.390625 50.304688 L 258.980469 50.304688 L 259.664062 50.304688 L 258.980469 50.300781 L 258.980469 50.304688 L 259.664062 50.304688 L 258.980469 50.300781 L 258.980469 50.394531 C 258.976562 53.640625 258.304688 56.703125 257.152344 59.542969 L 258.414062 60.058594 L 259.734375 60.402344 C 259.863281 59.902344 259.898438 59.511719 259.960938 59.25 C 260.117188 58.550781 259.707031 57.851562 259.019531 57.648438 C 258.335938 57.441406 257.609375 57.800781 257.355469 58.46875 C 255.226562 64.070312 251.113281 68.691406 245.835938 71.472656 C 245.386719 71.707031 245.105469 72.175781 245.109375 72.683594 C 245.109375 73.191406 245.394531 73.65625 245.84375 73.890625 C 249.765625 75.917969 253.089844 78.957031 255.429688 82.664062 C 257.773438 86.367188 259.136719 90.734375 259.152344 95.449219 L 259.152344 95.445312 L 259.152344 95.460938 C 259.15625 95.460938 259.152344 95.503906 259.140625 95.585938 C 259.125 95.714844 259.125 95.824219 259.140625 95.949219 C 259.152344 96.035156 259.160156 96.074219 259.160156 96.074219 L 259.9375 95.949219 L 259.152344 95.949219 C 259.152344 96.03125 259.160156 96.074219 259.160156 96.074219 L 259.9375 95.949219 L 259.152344 95.949219 L 260.402344 95.949219 L 259.152344 95.929688 L 259.152344 95.949219 L 260.402344 95.949219 L 259.152344 95.929688 C 259.152344 95.929688 259.144531 96.003906 259.160156 96.132812 L 260.515625 95.957031 L 259.152344 95.945312 C 259.152344 96.183594 259.097656 96.523438 259.070312 97.007812 C 259.054688 97.441406 259.039062 97.828125 258.996094 98.164062 L 258.992188 98.210938 C 258.648438 101.976562 257.5 105.496094 255.664062 108.5625 L 256.839844 109.261719 L 258.0625 109.867188 L 256.839844 109.261719 L 258.007812 109.964844 C 260.058594 106.539062 261.332031 102.617188 261.710938 98.457031 L 260.351562 98.332031 L 261.703125 98.5 C 261.765625 98.003906 261.78125 97.542969 261.796875 97.125 C 261.804688 96.863281 261.871094 96.488281 261.878906 95.972656 L 261.867188 95.785156 L 260.542969 95.957031 L 261.878906 95.957031 C 261.878906 95.925781 261.878906 95.867188 261.867188 95.785156 L 260.542969 95.957031 L 261.878906 95.957031 L 260.628906 95.957031 L 261.878906 95.976562 L 261.878906 95.957031 L 260.628906 95.957031 L 261.878906 95.976562 L 261.878906 95.949219 C 261.878906 95.808594 261.863281 95.707031 261.851562 95.648438 L 261.84375 95.589844 L 261.84375 95.585938 L 261.410156 95.652344 L 261.84375 95.597656 L 261.84375 95.585938 L 261.410156 95.652344 L 261.84375 95.597656 L 260.492188 95.773438 L 261.84375 95.957031 C 261.859375 95.84375 261.882812 95.679688 261.882812 95.460938 L 261.882812 95.441406 C 261.867188 90.203125 260.34375 85.324219 257.738281 81.203125 C 255.132812 77.082031 251.445312 73.71875 247.097656 71.464844 L 246.472656 72.679688 L 247.105469 73.886719 C 252.96875 70.796875 257.539062 65.667969 259.90625 59.441406 L 258.632812 58.957031 L 257.300781 58.660156 C 257.199219 59.128906 257.15625 59.488281 257.097656 59.710938 C 256.914062 60.40625 257.300781 61.125 257.984375 61.355469 C 258.667969 61.582031 259.410156 61.238281 259.679688 60.570312 C 260.949219 57.441406 261.710938 54.023438 261.707031 50.394531 L 261.707031 50.328125 L 261.066406 50.328125 L 261.707031 50.332031 L 261.707031 50.328125 L 261.066406 50.328125 L 261.707031 50.332031 L 261.710938 50.304688 C 261.703125 50.089844 261.683594 49.992188 261.6875 49.992188 L 260.324219 50.078125 L 261.691406 50.132812 L 261.640625 50.132812 L 261.691406 50.136719 L 261.691406 50.132812 L 261.640625 50.132812 L 261.691406 50.136719 C 261.6875 50.128906 261.703125 50.046875 261.710938 49.859375 L 261.710938 49.808594 C 261.640625 34.839844 249.519531 22.71875 234.535156 22.71875 L 234.425781 22.71875 C 227.652344 22.742188 221.472656 25.257812 216.753906 29.378906 C 212.03125 33.5 208.753906 39.238281 207.75 45.726562 L 209.097656 45.933594 L 209.105469 44.570312 L 76.492188 43.765625 L 76.484375 45.128906 L 77.832031 44.9375 C 76.910156 38.445312 73.707031 32.667969 69.035156 28.488281 C 64.363281 24.308594 58.214844 21.71875 51.4375 21.613281 L 51.441406 21.613281 C 51.285156 21.609375 51.132812 21.609375 50.984375 21.609375 C 36.175781 21.609375 24.078125 33.515625 23.835938 48.363281 L 25.199219 48.386719 L 23.839844 48.265625 L 23.835938 48.382812 L 23.835938 48.414062 C 23.835938 48.597656 23.847656 48.683594 23.847656 48.683594 L 25.210938 48.640625 L 23.847656 48.574219 L 23.84375 48.644531 C 23.839844 48.6875 23.832031 48.761719 23.832031 48.859375 L 23.835938 48.996094 L 25.199219 48.902344 L 23.835938 48.878906 C 23.832031 49.027344 23.832031 49.179688 23.832031 49.324219 C 23.828125 54.382812 25.238281 59.109375 27.679688 63.140625 C 30.117188 67.175781 33.585938 70.527344 37.703125 72.859375 L 38.375 71.675781 L 37.742188 70.46875 C 33.488281 72.699219 29.875 76 27.296875 80.039062 C 24.722656 84.074219 23.1875 88.847656 23.105469 94 L 24.472656 94.023438 L 23.109375 93.921875 C 23.105469 93.996094 23.105469 94.039062 23.105469 94.0625 C 23.105469 94.179688 23.113281 94.261719 23.113281 94.3125 L 23.117188 94.359375 L 24.480469 94.359375 L 23.121094 94.246094 L 23.109375 94.421875 L 23.105469 94.4375 C 23.101562 94.53125 23.105469 94.574219 23.105469 94.574219 C 23.109375 94.941406 23.152344 95.132812 23.148438 95.160156 L 24.511719 95.113281 L 23.148438 95.144531 C 23.164062 96.015625 23.234375 96.863281 23.332031 97.691406 L 24.6875 97.539062 L 23.328125 97.675781 C 24.503906 109.222656 32.839844 118.703125 43.972656 121.367188 C 44.652344 121.53125 45.347656 121.152344 45.578125 120.488281 C 45.808594 119.828125 45.496094 119.097656 44.863281 118.804688 C 44.316406 118.550781 43.75 118.199219 43.097656 117.828125 L 42.421875 119.015625 L 42.003906 120.3125 C 44.492188 121.109375 47.136719 121.574219 49.886719 121.613281 C 50.023438 121.613281 50.160156 121.613281 50.296875 121.613281 C 57.011719 121.617188 63.164062 119.164062 67.894531 115.097656 C 72.625 111.03125 75.945312 105.355469 77.019531 98.898438 L 75.675781 98.675781 L 75.667969 100.039062 L 209.246094 100.851562 L 209.257812 99.488281 L 207.90625 99.699219 C 208.921875 106.21875 212.21875 111.980469 216.960938 116.105469 C 221.703125 120.230469 227.902344 122.734375 234.691406 122.730469 L 234.765625 122.730469 C 245.367188 122.6875 254.515625 116.574219 258.964844 107.710938 L 257.746094 107.097656 L 256.464844 106.628906 C 256.203125 107.339844 255.925781 108.019531 255.613281 108.660156 C 255.289062 109.320312 255.539062 110.109375 256.183594 110.460938 C 256.828125 110.8125 257.628906 110.59375 258.007812 109.964844 L 256.839844 109.261719 " fill-opacity="1" fill-rule="nonzero"/></g><g fill="#000000" fill-opacity="0.4"><g transform="translate(71.485356, 87.633325)"><g><path d="M 25.636719 -24.980469 C 25.109375 -29.105469 18.523438 -29.148438 19.050781 -24.980469 C 19.667969 -20.148438 18.964844 -12.117188 13.828125 -9.65625 C 8.296875 -7.023438 8.691406 -22.785156 8.867188 -25.417969 C 9.175781 -29.632812 2.589844 -29.589844 2.28125 -25.417969 C 1.757812 -18 2.546875 -0.921875 14.089844 -2.898438 C 23.441406 -4.476562 26.648438 -17.078125 25.636719 -24.980469 Z M 25.636719 -24.980469 "/></g></g></g><g fill="#000000" fill-opacity="0.4"><g transform="translate(99.489448, 87.633325)"><g><path d="M 19.316406 -26.648438 C 18.613281 -21.90625 17.777344 -17.164062 16.902344 -12.46875 L 12.992188 -21.421875 C 11.851562 -24.101562 7.683594 -23.136719 6.980469 -20.632812 C 5.136719 -13.785156 3.554688 -6.847656 2.238281 0.0859375 C 1.449219 4.257812 7.8125 6.015625 8.605469 1.84375 C 9.304688 -1.976562 10.140625 -5.792969 11.019531 -9.613281 C 12.421875 -6.410156 13.785156 -3.25 15.1875 -0.0429688 C 16.332031 2.589844 20.632812 1.800781 21.203125 -0.835938 C 22.960938 -8.78125 24.453125 -16.8125 25.636719 -24.890625 C 26.25 -29.015625 19.886719 -30.816406 19.316406 -26.648438 Z M 19.316406 -26.648438 "/></g></g></g><g fill="#000000" fill-opacity="0.4"><g transform="translate(127.405749, 87.633325)"><g><path d="M 4.171875 -27.042969 C 3.292969 -19.140625 2.632812 -11.195312 2.195312 -3.25 C 1.929688 1.007812 8.515625 0.964844 8.78125 -3.25 C 9.21875 -11.195312 9.878906 -19.140625 10.753906 -27.042969 C 11.195312 -31.257812 4.609375 -31.257812 4.171875 -27.042969 Z M 4.171875 -27.042969 "/></g></g></g><g fill="#000000" fill-opacity="0.4"><g transform="translate(140.398242, 87.633325)"><g><path d="M 17.734375 -29.984375 C 15.058594 -31.035156 11.898438 -31.476562 9.175781 -30.464844 C 6.058594 -29.28125 4.960938 -26.648438 4.609375 -23.53125 C 3.6875 -15.671875 2.984375 -7.769531 2.195312 0.0859375 C 1.757812 4.300781 8.339844 4.300781 8.78125 0.0859375 C 9.132812 -3.25 9.4375 -6.585938 9.789062 -9.878906 C 15.496094 -8.558594 22.039062 -10.667969 24.671875 -16.242188 C 27.570312 -22.300781 23.308594 -27.746094 17.734375 -29.984375 Z M 10.492188 -16.550781 C 10.625 -17.777344 10.710938 -19.050781 10.84375 -20.28125 C 10.929688 -21.203125 10.800781 -22.738281 11.195312 -23.53125 C 11.589844 -24.363281 11.105469 -24.1875 12.070312 -24.453125 C 14.3125 -25.109375 19.273438 -22.609375 19.050781 -20.0625 C 18.746094 -16.023438 13.390625 -15.671875 10.492188 -16.550781 Z M 10.492188 -16.550781 "/></g></g></g><g fill="#000000" fill-opacity="0.4"><g transform="translate(168.22676, 87.633325)"><g><path d="M 18.304688 -9.304688 C 15.277344 -9.4375 12.246094 -9.304688 9.261719 -9.042969 C 9.480469 -10.710938 9.746094 -12.378906 9.964844 -14.046875 C 11.457031 -14.046875 12.949219 -14.003906 14.441406 -13.828125 C 16.242188 -13.652344 17.734375 -15.453125 17.734375 -17.121094 C 17.734375 -19.050781 16.242188 -20.238281 14.441406 -20.414062 C 13.300781 -20.542969 12.160156 -20.589844 10.976562 -20.632812 C 11.238281 -22.300781 11.546875 -24.011719 11.808594 -25.726562 C 14.046875 -25.726562 16.242188 -25.636719 18.480469 -25.503906 C 22.695312 -25.199219 22.695312 -31.78125 18.480469 -32.089844 C 15.320312 -32.308594 12.117188 -32.355469 8.957031 -32.222656 C 7.726562 -32.222656 6.847656 -31.605469 6.320312 -30.773438 C 6.101562 -30.421875 5.925781 -29.984375 5.839844 -29.5 C 4.390625 -21.421875 3.203125 -13.34375 2.195312 -5.269531 C 1.886719 -2.898438 4.523438 -1.800781 6.367188 -2.0625 C 10.316406 -2.722656 14.3125 -2.898438 18.304688 -2.722656 C 22.519531 -2.546875 22.519531 -9.132812 18.304688 -9.304688 Z M 18.304688 -9.304688 "/></g></g></g><g fill="#000000" fill-opacity="0.4"><g transform="translate(192.060963, 87.633325)"><g><path d="M 19.972656 -30.203125 C 15.101562 -30.816406 10.226562 -30.90625 5.3125 -30.421875 C 1.140625 -29.984375 1.097656 -23.398438 5.3125 -23.835938 C 6.628906 -23.96875 7.902344 -24.058594 9.175781 -24.101562 C 8.78125 -17.691406 8.429688 -11.238281 8.035156 -4.828125 C 7.769531 -0.613281 14.355469 -0.613281 14.617188 -4.828125 C 15.011719 -11.238281 15.363281 -17.601562 15.757812 -24.011719 C 17.164062 -23.925781 18.570312 -23.792969 19.972656 -23.617188 C 24.1875 -23.089844 24.144531 -29.675781 19.972656 -30.203125 Z M 19.972656 -30.203125 "/></g></g></g><g fill="#ffffff" fill-opacity="1"><g transform="translate(69.545095, 85.693065)"><g><path d="M 25.636719 -24.980469 C 25.109375 -29.105469 18.523438 -29.148438 19.050781 -24.980469 C 19.667969 -20.148438 18.964844 -12.117188 13.828125 -9.65625 C 8.296875 -7.023438 8.691406 -22.785156 8.867188 -25.417969 C 9.175781 -29.632812 2.589844 -29.589844 2.28125 -25.417969 C 1.757812 -18 2.546875 -0.921875 14.089844 -2.898438 C 23.441406 -4.476562 26.648438 -17.078125 25.636719 -24.980469 Z M 25.636719 -24.980469 "/></g></g></g><g fill="#ffffff" fill-opacity="1"><g transform="translate(97.549188, 85.693065)"><g><path d="M 19.316406 -26.648438 C 18.613281 -21.90625 17.777344 -17.164062 16.902344 -12.46875 L 12.992188 -21.421875 C 11.851562 -24.101562 7.683594 -23.136719 6.980469 -20.632812 C 5.136719 -13.785156 3.554688 -6.847656 2.238281 0.0859375 C 1.449219 4.257812 7.8125 6.015625 8.605469 1.84375 C 9.304688 -1.976562 10.140625 -5.792969 11.019531 -9.613281 C 12.421875 -6.410156 13.785156 -3.25 15.1875 -0.0429688 C 16.332031 2.589844 20.632812 1.800781 21.203125 -0.835938 C 22.960938 -8.78125 24.453125 -16.8125 25.636719 -24.890625 C 26.25 -29.015625 19.886719 -30.816406 19.316406 -26.648438 Z M 19.316406 -26.648438 "/></g></g></g><g fill="#ffffff" fill-opacity="1"><g transform="translate(125.465489, 85.693065)"><g><path d="M 4.171875 -27.042969 C 3.292969 -19.140625 2.632812 -11.195312 2.195312 -3.25 C 1.929688 1.007812 8.515625 0.964844 8.78125 -3.25 C 9.21875 -11.195312 9.878906 -19.140625 10.753906 -27.042969 C 11.195312 -31.257812 4.609375 -31.257812 4.171875 -27.042969 Z M 4.171875 -27.042969 "/></g></g></g><g fill="#ffffff" fill-opacity="1"><g transform="translate(138.457981, 85.693065)"><g><path d="M 17.734375 -29.984375 C 15.058594 -31.035156 11.898438 -31.476562 9.175781 -30.464844 C 6.058594 -29.28125 4.960938 -26.648438 4.609375 -23.53125 C 3.6875 -15.671875 2.984375 -7.769531 2.195312 0.0859375 C 1.757812 4.300781 8.339844 4.300781 8.78125 0.0859375 C 9.132812 -3.25 9.4375 -6.585938 9.789062 -9.878906 C 15.496094 -8.558594 22.039062 -10.667969 24.671875 -16.242188 C 27.570312 -22.300781 23.308594 -27.746094 17.734375 -29.984375 Z M 10.492188 -16.550781 C 10.625 -17.777344 10.710938 -19.050781 10.84375 -20.28125 C 10.929688 -21.203125 10.800781 -22.738281 11.195312 -23.53125 C 11.589844 -24.363281 11.105469 -24.1875 12.070312 -24.453125 C 14.3125 -25.109375 19.273438 -22.609375 19.050781 -20.0625 C 18.746094 -16.023438 13.390625 -15.671875 10.492188 -16.550781 Z M 10.492188 -16.550781 "/></g></g></g><g fill="#ffffff" fill-opacity="1"><g transform="translate(166.2865, 85.693065)"><g><path d="M 18.304688 -9.304688 C 15.277344 -9.4375 12.246094 -9.304688 9.261719 -9.042969 C 9.480469 -10.710938 9.746094 -12.378906 9.964844 -14.046875 C 11.457031 -14.046875 12.949219 -14.003906 14.441406 -13.828125 C 16.242188 -13.652344 17.734375 -15.453125 17.734375 -17.121094 C 17.734375 -19.050781 16.242188 -20.238281 14.441406 -20.414062 C 13.300781 -20.542969 12.160156 -20.589844 10.976562 -20.632812 C 11.238281 -22.300781 11.546875 -24.011719 11.808594 -25.726562 C 14.046875 -25.726562 16.242188 -25.636719 18.480469 -25.503906 C 22.695312 -25.199219 22.695312 -31.78125 18.480469 -32.089844 C 15.320312 -32.308594 12.117188 -32.355469 8.957031 -32.222656 C 7.726562 -32.222656 6.847656 -31.605469 6.320312 -30.773438 C 6.101562 -30.421875 5.925781 -29.984375 5.839844 -29.5 C 4.390625 -21.421875 3.203125 -13.34375 2.195312 -5.269531 C 1.886719 -2.898438 4.523438 -1.800781 6.367188 -2.0625 C 10.316406 -2.722656 14.3125 -2.898438 18.304688 -2.722656 C 22.519531 -2.546875 22.519531 -9.132812 18.304688 -9.304688 Z M 18.304688 -9.304688 "/></g></g></g><g fill="#ffffff" fill-opacity="1"><g transform="translate(190.120703, 85.693065)"><g><path d="M 19.972656 -30.203125 C 15.101562 -30.816406 10.226562 -30.90625 5.3125 -30.421875 C 1.140625 -29.984375 1.097656 -23.398438 5.3125 -23.835938 C 6.628906 -23.96875 7.902344 -24.058594 9.175781 -24.101562 C 8.78125 -17.691406 8.429688 -11.238281 8.035156 -4.828125 C 7.769531 -0.613281 14.355469 -0.613281 14.617188 -4.828125 C 15.011719 -11.238281 15.363281 -17.601562 15.757812 -24.011719 C 17.164062 -23.925781 18.570312 -23.792969 19.972656 -23.617188 C 24.1875 -23.089844 24.144531 -29.675781 19.972656 -30.203125 Z M 19.972656 -30.203125 "/></g></g></g><g clip-path="url(#3dd6821386)"><path fill="#ffffff" d="M 243.042969 96.175781 C 246.902344 94.722656 251.390625 95.03125 255.011719 97.011719 C 257.757812 98.507812 260.039062 101.015625 260.886719 104.03125 C 262.132812 108.46875 260.019531 113.460938 256.304688 116.1875 C 252.578125 118.902344 247.5625 119.488281 243.09375 118.34375 C 238.636719 117.199219 234.703125 114.464844 231.496094 111.148438 C 227.480469 106.992188 224.261719 101.707031 218.996094 99.324219 C 215.53125 97.746094 211.246094 97.714844 208.058594 99.789062 C 204.859375 101.851562 203.113281 106.175781 204.527344 109.714844 C 205.160156 111.324219 206.367188 112.667969 207.757812 113.679688 C 210.605469 115.722656 214.375 116.433594 217.769531 115.578125 C 216.5625 114.144531 215.820312 112.171875 216.304688 110.34375 C 216.789062 108.527344 218.78125 107.09375 220.574219 107.632812 C 222.195312 108.117188 223.0625 109.820312 223.753906 111.355469 C 224.34375 109.882812 225.992188 108.921875 227.5625 109.117188 C 229.132812 109.324219 230.484375 110.6875 230.667969 112.265625 C 230.824219 113.535156 230.277344 114.824219 229.441406 115.792969 C 228.605469 116.773438 227.511719 117.488281 226.40625 118.148438 C 225.148438 118.890625 223.847656 119.582031 222.515625 120.199219 C 221.640625 120.601562 220.742188 119.675781 220.257812 118.839844 C 219.761719 117.992188 219.039062 116.992188 218.089844 117.207031 C 213.890625 118.15625 209.234375 117.539062 205.765625 114.980469 C 202.300781 112.417969 200.296875 107.796875 201.382812 103.628906 C 201.792969 102.039062 202.621094 100.5625 203.691406 99.304688 C 207.222656 95.164062 213.257812 93.71875 218.585938 94.835938 C 223.910156 95.960938 228.554688 99.324219 232.164062 103.398438 C 233.746094 105.183594 235.15625 107.113281 236.789062 108.847656 C 238.832031 111.003906 241.238281 112.851562 244.023438 113.886719 C 246.800781 114.90625 249.96875 115.039062 252.691406 113.886719 C 255.417969 112.71875 257.605469 110.160156 257.945312 107.21875 C 258.335938 103.832031 256.242188 100.457031 253.28125 98.765625 C 250.316406 97.085938 246.683594 96.886719 243.351562 97.640625 C 244.035156 98.527344 244.746094 99.714844 244.167969 100.675781 C 243.734375 101.378906 242.792969 101.574219 241.96875 101.523438 C 241.152344 101.46875 240.316406 101.265625 239.511719 101.449219 C 238.5 101.675781 237.738281 102.492188 236.902344 103.121094 C 236.078125 103.75 234.898438 104.203125 234.011719 103.667969 C 233.125 103.121094 233 101.882812 233.082031 100.851562 C 233.207031 99.273438 233.609375 97.652344 234.601562 96.421875 C 235.589844 95.183594 237.273438 94.421875 238.800781 94.855469 C 240.265625 95.269531 241.617188 96.710938 243.042969 96.175781 " fill-opacity="1" fill-rule="nonzero"/></g><path fill="#ffffff" d="M 244.464844 91.089844 C 244.785156 92.253906 244.527344 93.566406 243.773438 94.515625 C 243.546875 94.804688 243.269531 95.070312 242.929688 95.207031 C 242.277344 95.472656 241.496094 95.226562 241.007812 94.722656 C 240.523438 94.226562 240.296875 93.511719 240.257812 92.8125 C 240.214844 92.160156 240.316406 91.492188 240.566406 90.882812 C 240.90625 90.078125 241.597656 89.304688 242.476562 89.28125 C 243.433594 89.261719 244.207031 90.160156 244.464844 91.089844 " fill-opacity="1" fill-rule="nonzero"/><path fill="#ffffff" d="M 230.617188 99.117188 C 229.523438 98.890625 228.585938 98.09375 228.070312 97.105469 C 227.820312 96.628906 227.65625 96.105469 227.6875 95.566406 C 227.71875 95.039062 227.953125 94.503906 228.386719 94.195312 C 228.976562 93.792969 229.769531 93.863281 230.429688 94.121094 C 231.496094 94.554688 232.351562 95.472656 232.703125 96.578125 C 232.949219 97.363281 232.886719 98.34375 232.238281 98.847656 C 231.792969 99.199219 231.175781 99.230469 230.617188 99.117188 " fill-opacity="1" fill-rule="nonzero"/><g clip-path="url(#f6d6b67f1a)"><path fill="#ffffff" d="M 235.46875 90.3125 C 235.355469 90.035156 235.273438 89.757812 235.21875 89.46875 C 235.074219 88.746094 235.128906 87.992188 235.363281 87.289062 C 235.589844 86.640625 236.015625 86.011719 236.65625 85.773438 C 237.203125 85.578125 237.820312 85.703125 238.304688 86.011719 C 238.78125 86.320312 239.140625 86.804688 239.378906 87.320312 C 239.84375 88.34375 239.882812 89.550781 239.503906 90.613281 C 239.285156 91.222656 238.882812 91.8125 238.273438 92.046875 C 237.707031 92.265625 237.035156 92.121094 236.539062 91.769531 C 236.035156 91.417969 235.695312 90.882812 235.46875 90.3125 " fill-opacity="1" fill-rule="nonzero"/></g><path fill="#ffffff" d="M 234.582031 92.542969 C 234.269531 93.308594 233.371094 93.730469 232.558594 93.648438 C 231.742188 93.566406 231.007812 93.039062 230.523438 92.367188 C 230.039062 91.707031 229.761719 90.914062 229.542969 90.117188 C 229.347656 89.355469 229.65625 88.5 230.289062 88.035156 C 230.917969 87.570312 231.835938 87.539062 232.496094 87.972656 C 233.753906 88.777344 234.695312 90.148438 234.726562 91.644531 C 234.726562 91.945312 234.695312 92.253906 234.582031 92.542969 " fill-opacity="1" fill-rule="nonzero"/><g clip-path="url(#48c676d6ab)"><path fill="#ffffff" d="M 62.226562 32.21875 C 66.085938 30.765625 70.578125 31.074219 74.199219 33.054688 C 76.945312 34.550781 79.222656 37.058594 80.070312 40.074219 C 81.320312 44.511719 79.203125 49.503906 75.488281 52.230469 C 71.761719 54.945312 66.746094 55.53125 62.28125 54.386719 C 57.820312 53.242188 53.890625 50.507812 50.679688 47.191406 C 46.664062 43.035156 43.445312 37.75 38.183594 35.367188 C 34.714844 33.789062 30.433594 33.757812 27.242188 35.832031 C 24.042969 37.894531 22.300781 42.21875 23.714844 45.757812 C 24.34375 47.367188 25.550781 48.710938 26.945312 49.722656 C 29.792969 51.765625 33.558594 52.476562 36.953125 51.621094 C 35.746094 50.1875 35.003906 48.214844 35.488281 46.386719 C 35.972656 44.570312 37.964844 43.136719 39.761719 43.675781 C 41.382812 44.160156 42.25 45.863281 42.941406 47.398438 C 43.527344 45.925781 45.179688 44.964844 46.746094 45.160156 C 48.316406 45.367188 49.667969 46.730469 49.855469 48.308594 C 50.007812 49.578125 49.460938 50.867188 48.625 51.835938 C 47.789062 52.816406 46.695312 53.53125 45.59375 54.191406 C 44.332031 54.933594 43.03125 55.625 41.703125 56.242188 C 40.824219 56.644531 39.925781 55.71875 39.441406 54.882812 C 38.945312 54.035156 38.222656 53.035156 37.273438 53.25 C 33.074219 54.199219 28.417969 53.582031 24.953125 51.023438 C 21.484375 48.460938 19.484375 43.839844 20.566406 39.671875 C 20.980469 38.082031 21.804688 36.605469 22.878906 35.347656 C 26.40625 31.207031 32.445312 29.761719 37.769531 30.878906 C 43.09375 32.003906 47.738281 35.367188 51.351562 39.441406 C 52.929688 41.226562 54.34375 43.15625 55.972656 44.890625 C 58.015625 47.046875 60.421875 48.894531 63.207031 49.929688 C 65.984375 50.949219 69.152344 51.082031 71.875 49.929688 C 74.601562 48.761719 76.789062 46.203125 77.128906 43.261719 C 77.523438 39.875 75.425781 36.5 72.464844 34.808594 C 69.503906 33.128906 65.871094 32.929688 62.539062 33.683594 C 63.21875 34.570312 63.929688 35.757812 63.351562 36.71875 C 62.917969 37.421875 61.980469 37.617188 61.15625 37.566406 C 60.339844 37.511719 59.503906 37.308594 58.699219 37.492188 C 57.6875 37.71875 56.921875 38.535156 56.085938 39.164062 C 55.261719 39.792969 54.085938 40.246094 53.199219 39.710938 C 52.308594 39.164062 52.1875 37.925781 52.269531 36.894531 C 52.394531 35.316406 52.796875 33.695312 53.785156 32.464844 C 54.777344 31.226562 56.457031 30.464844 57.984375 30.898438 C 59.453125 31.3125 60.804688 32.753906 62.226562 32.21875 " fill-opacity="1" fill-rule="nonzero"/></g><path fill="#ffffff" d="M 63.652344 27.132812 C 63.972656 28.296875 63.714844 29.609375 62.960938 30.558594 C 62.734375 30.847656 62.453125 31.113281 62.113281 31.25 C 61.464844 31.515625 60.679688 31.269531 60.195312 30.765625 C 59.710938 30.269531 59.484375 29.554688 59.441406 28.855469 C 59.398438 28.203125 59.503906 27.535156 59.75 26.925781 C 60.089844 26.121094 60.78125 25.347656 61.660156 25.324219 C 62.621094 25.304688 63.394531 26.203125 63.652344 27.132812 " fill-opacity="1" fill-rule="nonzero"/><path fill="#ffffff" d="M 49.800781 35.160156 C 48.707031 34.933594 47.769531 34.136719 47.253906 33.148438 C 47.007812 32.671875 46.839844 32.148438 46.871094 31.609375 C 46.902344 31.082031 47.140625 30.546875 47.574219 30.238281 C 48.160156 29.835938 48.957031 29.90625 49.617188 30.164062 C 50.679688 30.597656 51.535156 31.515625 51.886719 32.621094 C 52.136719 33.40625 52.074219 34.386719 51.421875 34.890625 C 50.980469 35.242188 50.359375 35.273438 49.800781 35.160156 " fill-opacity="1" fill-rule="nonzero"/><g clip-path="url(#ae47e802ea)"><path fill="#ffffff" d="M 54.652344 26.355469 C 54.539062 26.078125 54.457031 25.800781 54.40625 25.511719 C 54.261719 24.789062 54.3125 24.035156 54.550781 23.332031 C 54.777344 22.683594 55.199219 22.054688 55.839844 21.816406 C 56.386719 21.621094 57.003906 21.746094 57.492188 22.054688 C 57.964844 22.363281 58.328125 22.847656 58.5625 23.363281 C 59.027344 24.386719 59.070312 25.59375 58.6875 26.65625 C 58.472656 27.265625 58.070312 27.855469 57.460938 28.089844 C 56.890625 28.308594 56.222656 28.164062 55.726562 27.8125 C 55.21875 27.460938 54.878906 26.925781 54.652344 26.355469 " fill-opacity="1" fill-rule="nonzero"/></g><path fill="#ffffff" d="M 53.765625 28.585938 C 53.457031 29.351562 52.558594 29.773438 51.742188 29.691406 C 50.925781 29.609375 50.195312 29.082031 49.710938 28.410156 C 49.226562 27.75 48.945312 26.957031 48.730469 26.160156 C 48.535156 25.398438 48.84375 24.542969 49.472656 24.078125 C 50.101562 23.613281 51.019531 23.582031 51.679688 24.015625 C 52.941406 24.820312 53.878906 26.191406 53.910156 27.6875 C 53.910156 27.988281 53.878906 28.296875 53.765625 28.585938 " fill-opacity="1" fill-rule="nonzero"/></svg>