<svg xmlns="http://www.w3.org/2000/svg" xmlns:xlink="http://www.w3.org/1999/xlink" width="106" zoomAndPan="magnify" viewBox="0 0 79.5 30.000001" height="40" preserveAspectRatio="xMidYMid meet" version="1.0"><defs><clipPath id="bf99a77a2a"><path d="M 7.253906 1.058594 L 71.714844 1.058594 L 71.714844 28.273438 L 7.253906 28.273438 Z M 7.253906 1.058594 " clip-rule="nonzero"/></clipPath><clipPath id="2d07fc3738"><path d="M 7.253906 0.410156 L 71.714844 0.410156 L 71.714844 27.628906 L 7.253906 27.628906 Z M 7.253906 0.410156 " clip-rule="nonzero"/></clipPath><clipPath id="e5e5b1223b"><path d="M 55.296875 19.867188 L 71.761719 19.867188 L 71.761719 27 L 55.296875 27 Z M 55.296875 19.867188 " clip-rule="nonzero"/></clipPath><clipPath id="ff88e7cb0e"><path d="M 64.472656 17.605469 L 65.824219 17.605469 L 65.824219 19.597656 L 64.472656 19.597656 Z M 64.472656 17.605469 " clip-rule="nonzero"/></clipPath><clipPath id="05356e8074"><path d="M 6.445312 2.664062 L 22.910156 2.664062 L 22.910156 9.816406 L 6.445312 9.816406 Z M 6.445312 2.664062 " clip-rule="nonzero"/></clipPath><clipPath id="e733b25098"><path d="M 15.621094 0.410156 L 16.972656 0.410156 L 16.972656 2.394531 L 15.621094 2.394531 Z M 15.621094 0.410156 " clip-rule="nonzero"/></clipPath></defs><path fill="#d9d9d9" d="M 70.367188 24.617188 C 70.460938 24.429688 70.539062 24.234375 70.613281 24.035156 C 69.472656 26.300781 67.128906 27.859375 64.410156 27.871094 C 60.917969 27.878906 58.046875 25.324219 57.527344 21.988281 L 21.472656 21.769531 C 20.914062 25.101562 18.007812 27.621094 14.519531 27.570312 C 13.8125 27.558594 13.136719 27.441406 12.496094 27.238281 C 12.664062 27.332031 12.828125 27.433594 13 27.515625 C 10.152344 26.832031 8.011719 24.414062 7.710938 21.464844 C 7.6875 21.25 7.667969 21.03125 7.664062 20.8125 C 7.660156 20.761719 7.652344 20.710938 7.652344 20.65625 L 7.65625 20.609375 C 7.65625 20.578125 7.652344 20.550781 7.652344 20.519531 C 7.695312 17.886719 9.21875 15.65625 11.40625 14.511719 C 9.257812 13.300781 7.808594 11.023438 7.847656 8.390625 C 7.847656 8.367188 7.851562 8.34375 7.851562 8.320312 C 7.851562 8.296875 7.847656 8.273438 7.847656 8.25 C 7.910156 4.421875 11.078125 1.359375 14.925781 1.421875 C 18.402344 1.476562 21.21875 4.058594 21.691406 7.375 L 57.484375 7.59375 C 58 4.28125 60.84375 1.730469 64.320312 1.71875 C 68.171875 1.703125 71.296875 4.804688 71.316406 8.636719 C 71.3125 8.660156 71.308594 8.679688 71.308594 8.707031 C 71.3125 8.730469 71.3125 8.75 71.3125 8.773438 C 71.316406 9.703125 71.121094 10.582031 70.792969 11.390625 C 70.816406 11.292969 70.828125 11.191406 70.851562 11.09375 C 70.246094 12.683594 69.074219 13.992188 67.570312 14.78125 C 69.800781 15.933594 71.351562 18.226562 71.359375 20.902344 C 71.359375 20.933594 71.359375 20.960938 71.355469 20.988281 C 71.355469 21.007812 71.359375 21.023438 71.359375 21.039062 C 71.359375 21.140625 71.34375 21.238281 71.335938 21.335938 C 71.332031 21.453125 71.328125 21.566406 71.316406 21.679688 C 71.21875 22.742188 70.890625 23.746094 70.367188 24.617188 " fill-opacity="1" fill-rule="evenodd"/><g clip-path="url(#bf99a77a2a)"><path fill="#d9d9d9" d="M 70.367188 24.617188 L 70.699219 24.777344 C 70.796875 24.574219 70.882812 24.367188 70.957031 24.160156 C 71.027344 23.976562 70.9375 23.773438 70.757812 23.699219 C 70.578125 23.621094 70.371094 23.695312 70.285156 23.871094 C 69.199219 26.015625 66.984375 27.492188 64.40625 27.503906 L 64.410156 27.503906 L 64.390625 27.503906 C 62.738281 27.503906 61.242188 26.898438 60.089844 25.902344 C 58.9375 24.902344 58.136719 23.511719 57.890625 21.933594 C 57.859375 21.753906 57.707031 21.625 57.527344 21.621094 L 21.472656 21.402344 C 21.292969 21.402344 21.140625 21.53125 21.109375 21.710938 C 20.847656 23.273438 20.039062 24.644531 18.894531 25.628906 C 17.742188 26.609375 16.253906 27.203125 14.621094 27.203125 C 14.589844 27.203125 14.554688 27.203125 14.523438 27.203125 C 13.855469 27.191406 13.214844 27.082031 12.609375 26.886719 C 12.429688 26.832031 12.234375 26.917969 12.160156 27.089844 C 12.085938 27.261719 12.152344 27.464844 12.316406 27.558594 C 12.476562 27.644531 12.644531 27.753906 12.847656 27.847656 L 13 27.515625 L 13.085938 27.15625 C 10.390625 26.511719 8.363281 24.21875 8.078125 21.425781 L 8.074219 21.421875 C 8.050781 21.214844 8.035156 21.011719 8.03125 20.804688 L 8.03125 20.800781 C 8.03125 20.753906 8.023438 20.722656 8.023438 20.699219 C 8.019531 20.675781 8.019531 20.667969 8.019531 20.667969 L 8.019531 20.664062 L 7.75 20.664062 L 8.019531 20.683594 L 8.019531 20.664062 L 7.75 20.664062 L 8.019531 20.683594 L 7.652344 20.65625 L 8.019531 20.6875 L 8.023438 20.640625 L 8.023438 20.609375 C 8.023438 20.578125 8.023438 20.554688 8.019531 20.542969 L 8.019531 20.527344 L 7.953125 20.53125 L 8.019531 20.53125 L 8.019531 20.527344 L 7.953125 20.53125 L 8.019531 20.53125 L 7.804688 20.53125 L 8.019531 20.546875 L 8.019531 20.53125 L 7.804688 20.53125 L 8.019531 20.546875 L 8.019531 20.523438 C 8.042969 19.277344 8.410156 18.132812 9.039062 17.15625 C 9.660156 16.179688 10.539062 15.378906 11.578125 14.835938 C 11.695312 14.773438 11.769531 14.652344 11.773438 14.519531 C 11.777344 14.382812 11.703125 14.257812 11.585938 14.191406 C 10.582031 13.625 9.742188 12.8125 9.148438 11.839844 C 8.554688 10.863281 8.214844 9.726562 8.214844 8.503906 C 8.214844 8.46875 8.214844 8.433594 8.21875 8.398438 L 8.214844 8.367188 L 8.027344 8.378906 L 8.214844 8.378906 L 8.214844 8.367188 L 8.027344 8.378906 L 8.21875 8.378906 C 8.21875 8.371094 8.21875 8.359375 8.21875 8.339844 L 8.21875 8.308594 C 8.21875 8.289062 8.21875 8.273438 8.21875 8.265625 L 8.21875 8.257812 L 8.144531 8.257812 L 8.21875 8.257812 L 8.144531 8.257812 L 8.21875 8.257812 L 7.914062 8.257812 L 8.214844 8.285156 C 8.21875 8.265625 8.21875 8.257812 8.21875 8.257812 L 7.914062 8.257812 L 8.214844 8.285156 L 8.21875 8.257812 C 8.273438 4.664062 11.214844 1.785156 14.808594 1.785156 C 14.84375 1.785156 14.882812 1.785156 14.917969 1.789062 C 16.566406 1.8125 18.054688 2.4375 19.1875 3.449219 C 20.324219 4.460938 21.101562 5.859375 21.324219 7.425781 C 21.351562 7.609375 21.507812 7.742188 21.6875 7.742188 L 57.480469 7.957031 C 57.664062 7.960938 57.820312 7.828125 57.847656 7.648438 C 58.089844 6.082031 58.886719 4.691406 60.03125 3.695312 C 61.179688 2.695312 62.671875 2.089844 64.320312 2.085938 L 64.347656 2.085938 C 67.984375 2.082031 70.929688 5.015625 70.945312 8.636719 L 71.316406 8.636719 L 70.945312 8.625 L 71.042969 8.625 L 70.945312 8.621094 L 70.945312 8.625 L 71.042969 8.625 L 70.945312 8.621094 L 70.945312 8.625 C 70.945312 8.632812 70.941406 8.652344 70.941406 8.691406 L 70.941406 8.730469 C 70.941406 8.75 70.945312 8.765625 70.945312 8.769531 L 70.945312 8.773438 L 71.054688 8.765625 L 70.945312 8.765625 L 70.945312 8.773438 L 71.054688 8.765625 L 70.945312 8.765625 L 71.128906 8.765625 L 70.945312 8.765625 L 71.128906 8.765625 L 70.945312 8.765625 L 70.945312 8.792969 C 70.945312 9.664062 70.761719 10.488281 70.453125 11.25 L 70.792969 11.390625 L 71.148438 11.480469 C 71.183594 11.347656 71.195312 11.242188 71.210938 11.171875 C 71.253906 10.984375 71.140625 10.796875 70.957031 10.742188 C 70.773438 10.6875 70.574219 10.78125 70.507812 10.960938 C 69.933594 12.46875 68.824219 13.710938 67.398438 14.457031 C 67.277344 14.519531 67.199219 14.648438 67.203125 14.785156 C 67.203125 14.917969 67.277344 15.042969 67.398438 15.109375 C 68.457031 15.652344 69.355469 16.46875 69.988281 17.464844 C 70.621094 18.460938 70.988281 19.636719 70.992188 20.902344 L 70.992188 20.90625 C 70.992188 20.90625 70.992188 20.917969 70.988281 20.941406 C 70.984375 20.972656 70.984375 21.003906 70.988281 21.039062 C 70.992188 21.0625 70.996094 21.070312 70.996094 21.070312 L 71.203125 21.039062 L 70.992188 21.039062 C 70.992188 21.058594 70.996094 21.070312 70.996094 21.070312 L 71.203125 21.039062 L 70.992188 21.039062 L 71.328125 21.039062 L 70.992188 21.03125 L 70.992188 21.039062 L 71.328125 21.039062 L 70.992188 21.03125 C 70.992188 21.03125 70.988281 21.050781 70.996094 21.085938 L 71.359375 21.039062 L 70.992188 21.035156 C 70.992188 21.101562 70.976562 21.191406 70.96875 21.320312 C 70.964844 21.4375 70.960938 21.542969 70.949219 21.632812 L 70.949219 21.644531 C 70.855469 22.65625 70.546875 23.605469 70.050781 24.429688 L 70.367188 24.617188 L 70.699219 24.777344 L 70.367188 24.617188 L 70.683594 24.804688 C 71.238281 23.882812 71.582031 22.828125 71.683594 21.710938 L 71.316406 21.679688 L 71.679688 21.722656 C 71.699219 21.589844 71.703125 21.464844 71.707031 21.355469 C 71.707031 21.28125 71.726562 21.183594 71.726562 21.042969 L 71.726562 20.992188 L 71.367188 21.039062 L 71.726562 21.039062 C 71.726562 21.03125 71.726562 21.015625 71.726562 20.992188 L 71.367188 21.039062 L 71.726562 21.039062 L 71.390625 21.039062 L 71.726562 21.042969 L 71.726562 21.039062 L 71.390625 21.039062 L 71.726562 21.042969 L 71.726562 21.039062 C 71.726562 21 71.722656 20.972656 71.71875 20.957031 L 71.71875 20.941406 L 71.601562 20.957031 L 71.71875 20.941406 L 71.601562 20.957031 L 71.71875 20.941406 L 71.355469 20.988281 L 71.71875 21.039062 C 71.722656 21.007812 71.730469 20.964844 71.730469 20.90625 L 71.730469 20.902344 C 71.726562 19.492188 71.3125 18.179688 70.609375 17.074219 C 69.90625 15.964844 68.910156 15.0625 67.738281 14.457031 L 67.570312 14.78125 L 67.742188 15.105469 C 69.324219 14.277344 70.558594 12.898438 71.195312 11.222656 L 70.851562 11.09375 L 70.492188 11.011719 C 70.464844 11.140625 70.453125 11.234375 70.4375 11.296875 C 70.386719 11.484375 70.492188 11.675781 70.675781 11.738281 C 70.863281 11.796875 71.0625 11.707031 71.132812 11.527344 C 71.476562 10.6875 71.683594 9.765625 71.679688 8.792969 L 71.679688 8.773438 L 71.507812 8.773438 L 71.679688 8.773438 L 71.507812 8.773438 L 71.679688 8.773438 L 71.683594 8.765625 C 71.679688 8.710938 71.675781 8.683594 71.675781 8.683594 L 71.308594 8.707031 L 71.675781 8.722656 L 71.664062 8.722656 L 71.675781 8.722656 L 71.664062 8.722656 L 71.675781 8.722656 C 71.675781 8.71875 71.679688 8.699219 71.683594 8.648438 L 71.683594 8.632812 C 71.664062 4.609375 68.390625 1.351562 64.347656 1.351562 L 64.320312 1.351562 C 62.492188 1.359375 60.824219 2.035156 59.550781 3.140625 C 58.273438 4.25 57.390625 5.792969 57.117188 7.535156 L 57.484375 7.59375 L 57.484375 7.226562 L 21.691406 7.007812 L 21.691406 7.375 L 22.054688 7.324219 C 21.804688 5.578125 20.941406 4.027344 19.679688 2.902344 C 18.417969 1.777344 16.761719 1.082031 14.929688 1.054688 L 14.933594 1.054688 C 14.890625 1.054688 14.847656 1.054688 14.808594 1.054688 C 10.8125 1.054688 7.546875 4.253906 7.480469 8.246094 L 7.847656 8.25 L 7.480469 8.21875 L 7.480469 8.257812 C 7.480469 8.308594 7.484375 8.332031 7.484375 8.332031 L 7.851562 8.320312 L 7.484375 8.300781 L 7.484375 8.320312 C 7.480469 8.332031 7.480469 8.351562 7.480469 8.378906 L 7.480469 8.414062 L 7.847656 8.390625 L 7.480469 8.382812 C 7.480469 8.425781 7.480469 8.464844 7.480469 8.503906 C 7.480469 9.863281 7.859375 11.132812 8.519531 12.21875 C 9.175781 13.300781 10.113281 14.203125 11.222656 14.832031 L 11.40625 14.511719 L 11.234375 14.1875 C 10.085938 14.789062 9.109375 15.675781 8.414062 16.761719 C 7.71875 17.84375 7.304688 19.128906 7.285156 20.511719 L 7.652344 20.519531 L 7.285156 20.492188 C 7.285156 20.511719 7.285156 20.523438 7.285156 20.53125 C 7.285156 20.5625 7.285156 20.582031 7.285156 20.597656 L 7.285156 20.609375 L 7.65625 20.609375 L 7.289062 20.578125 L 7.285156 20.625 L 7.285156 20.632812 C 7.28125 20.65625 7.285156 20.667969 7.285156 20.667969 C 7.285156 20.765625 7.296875 20.816406 7.296875 20.824219 L 7.664062 20.8125 L 7.296875 20.820312 C 7.300781 21.054688 7.320312 21.28125 7.34375 21.503906 L 7.710938 21.464844 L 7.34375 21.5 C 7.660156 24.605469 9.910156 27.152344 12.914062 27.871094 C 13.097656 27.914062 13.285156 27.8125 13.347656 27.632812 C 13.410156 27.457031 13.328125 27.257812 13.15625 27.179688 C 13.007812 27.113281 12.855469 27.019531 12.679688 26.917969 L 12.496094 27.238281 L 12.382812 27.585938 C 13.054688 27.800781 13.769531 27.925781 14.511719 27.933594 C 14.550781 27.9375 14.585938 27.9375 14.621094 27.9375 C 16.433594 27.9375 18.09375 27.277344 19.371094 26.183594 C 20.648438 25.089844 21.546875 23.566406 21.835938 21.832031 L 21.472656 21.769531 L 21.46875 22.136719 L 57.523438 22.355469 L 57.527344 21.988281 L 57.160156 22.046875 C 57.433594 23.796875 58.324219 25.347656 59.605469 26.453125 C 60.882812 27.566406 62.558594 28.238281 64.390625 28.238281 L 64.410156 28.238281 C 67.273438 28.226562 69.742188 26.582031 70.941406 24.199219 L 70.613281 24.035156 L 70.265625 23.910156 C 70.195312 24.097656 70.121094 24.28125 70.035156 24.453125 C 69.949219 24.632812 70.015625 24.84375 70.191406 24.9375 C 70.363281 25.03125 70.582031 24.972656 70.683594 24.804688 L 70.367188 24.617188 " fill-opacity="1" fill-rule="nonzero"/></g><path fill="#0cc0df" d="M 70.367188 23.96875 C 70.460938 23.78125 70.539062 23.585938 70.613281 23.386719 C 69.472656 25.652344 67.128906 27.214844 64.410156 27.222656 C 60.917969 27.234375 58.046875 24.679688 57.527344 21.34375 L 21.472656 21.125 C 20.914062 24.457031 18.007812 26.972656 14.519531 26.921875 C 13.8125 26.914062 13.136719 26.796875 12.496094 26.59375 C 12.664062 26.6875 12.828125 26.789062 13 26.867188 C 10.152344 26.1875 8.011719 23.765625 7.710938 20.820312 C 7.6875 20.605469 7.667969 20.386719 7.664062 20.167969 C 7.660156 20.113281 7.652344 20.066406 7.652344 20.011719 L 7.65625 19.964844 C 7.65625 19.933594 7.652344 19.902344 7.652344 19.875 C 7.695312 17.242188 9.21875 15.007812 11.40625 13.867188 C 9.257812 12.652344 7.808594 10.378906 7.847656 7.746094 C 7.847656 7.71875 7.851562 7.699219 7.851562 7.675781 C 7.851562 7.652344 7.847656 7.628906 7.847656 7.605469 C 7.910156 3.777344 11.078125 0.710938 14.925781 0.773438 C 18.402344 0.828125 21.21875 3.414062 21.691406 6.730469 L 57.484375 6.945312 C 58 3.632812 60.84375 1.085938 64.320312 1.074219 C 68.171875 1.058594 71.296875 4.15625 71.316406 7.992188 C 71.3125 8.011719 71.308594 8.035156 71.308594 8.0625 C 71.3125 8.082031 71.3125 8.105469 71.3125 8.128906 C 71.316406 9.058594 71.121094 9.9375 70.792969 10.742188 C 70.816406 10.644531 70.828125 10.546875 70.851562 10.449219 C 70.246094 12.039062 69.074219 13.347656 67.570312 14.136719 C 69.800781 15.285156 71.351562 17.582031 71.359375 20.257812 C 71.359375 20.285156 71.359375 20.316406 71.355469 20.34375 C 71.355469 20.359375 71.359375 20.378906 71.359375 20.394531 C 71.359375 20.496094 71.34375 20.59375 71.335938 20.691406 C 71.332031 20.804688 71.328125 20.917969 71.316406 21.03125 C 71.21875 22.097656 70.890625 23.097656 70.367188 23.96875 " fill-opacity="1" fill-rule="evenodd"/><g clip-path="url(#2d07fc3738)"><path fill="#ffffff" d="M 70.367188 23.96875 L 70.699219 24.132812 C 70.796875 23.929688 70.882812 23.722656 70.957031 23.515625 C 71.027344 23.332031 70.9375 23.128906 70.757812 23.050781 C 70.578125 22.976562 70.371094 23.050781 70.285156 23.226562 C 69.199219 25.371094 66.984375 26.847656 64.40625 26.859375 L 64.410156 26.859375 L 64.390625 26.859375 C 62.738281 26.859375 61.242188 26.253906 60.089844 25.257812 C 58.9375 24.257812 58.136719 22.867188 57.890625 21.289062 C 57.859375 21.109375 57.707031 20.976562 57.527344 20.976562 L 21.472656 20.757812 C 21.292969 20.757812 21.140625 20.886719 21.109375 21.0625 C 20.847656 22.625 20.039062 24 18.894531 24.984375 C 17.742188 25.964844 16.253906 26.558594 14.621094 26.558594 C 14.589844 26.558594 14.554688 26.558594 14.523438 26.554688 C 13.855469 26.546875 13.214844 26.4375 12.609375 26.242188 C 12.429688 26.1875 12.234375 26.273438 12.160156 26.445312 C 12.085938 26.617188 12.152344 26.816406 12.316406 26.910156 C 12.476562 27 12.644531 27.109375 12.847656 27.199219 L 13 26.867188 L 13.085938 26.511719 C 10.390625 25.867188 8.363281 23.574219 8.078125 20.78125 L 8.074219 20.777344 C 8.050781 20.570312 8.035156 20.363281 8.03125 20.160156 L 8.03125 20.15625 C 8.03125 20.109375 8.023438 20.074219 8.023438 20.054688 C 8.019531 20.03125 8.019531 20.023438 8.019531 20.023438 L 8.019531 20.019531 L 7.75 20.019531 L 8.019531 20.039062 L 8.019531 20.019531 L 7.75 20.019531 L 8.019531 20.039062 L 7.652344 20.011719 L 8.019531 20.042969 L 8.023438 19.996094 L 8.023438 19.964844 C 8.023438 19.933594 8.023438 19.910156 8.019531 19.898438 L 8.019531 19.882812 L 7.953125 19.882812 L 8.019531 19.882812 L 7.953125 19.882812 L 8.019531 19.882812 L 7.804688 19.882812 L 8.019531 19.898438 L 8.019531 19.882812 L 7.804688 19.882812 L 8.019531 19.898438 L 8.019531 19.878906 C 8.042969 18.632812 8.410156 17.484375 9.039062 16.507812 C 9.660156 15.535156 10.539062 14.734375 11.578125 14.191406 C 11.695312 14.128906 11.769531 14.007812 11.773438 13.871094 C 11.777344 13.738281 11.703125 13.613281 11.585938 13.546875 C 10.582031 12.980469 9.742188 12.167969 9.148438 11.191406 C 8.554688 10.21875 8.214844 9.082031 8.214844 7.859375 C 8.214844 7.820312 8.214844 7.785156 8.21875 7.753906 L 8.214844 7.71875 L 8.027344 7.734375 L 8.214844 7.734375 L 8.214844 7.71875 L 8.027344 7.734375 L 8.21875 7.734375 C 8.21875 7.726562 8.21875 7.714844 8.21875 7.691406 L 8.21875 7.664062 C 8.21875 7.640625 8.21875 7.628906 8.21875 7.621094 L 8.21875 7.609375 L 8.144531 7.613281 L 8.21875 7.613281 L 8.21875 7.609375 L 8.144531 7.613281 L 8.21875 7.613281 L 8.21875 7.609375 L 7.914062 7.609375 L 8.214844 7.636719 C 8.21875 7.621094 8.21875 7.613281 8.21875 7.609375 L 7.914062 7.609375 L 8.214844 7.636719 L 8.21875 7.613281 C 8.273438 4.019531 11.214844 1.140625 14.808594 1.140625 C 14.84375 1.140625 14.882812 1.140625 14.917969 1.140625 C 16.566406 1.167969 18.054688 1.792969 19.1875 2.804688 C 20.324219 3.816406 21.101562 5.210938 21.324219 6.78125 C 21.351562 6.960938 21.507812 7.097656 21.6875 7.097656 L 57.480469 7.3125 C 57.664062 7.3125 57.820312 7.183594 57.847656 7.003906 C 58.089844 5.433594 58.886719 4.046875 60.03125 3.046875 C 61.179688 2.050781 62.671875 1.445312 64.320312 1.4375 L 64.347656 1.4375 C 67.984375 1.4375 70.929688 4.371094 70.945312 7.992188 L 71.316406 7.992188 L 70.945312 7.980469 L 71.042969 7.980469 L 70.945312 7.976562 L 70.945312 7.980469 L 71.042969 7.980469 L 70.945312 7.976562 C 70.945312 7.984375 70.941406 8.007812 70.941406 8.046875 L 70.941406 8.082031 C 70.941406 8.105469 70.945312 8.117188 70.945312 8.125 L 70.945312 8.128906 L 71.054688 8.121094 L 70.945312 8.121094 L 70.945312 8.128906 L 71.054688 8.121094 L 70.945312 8.121094 L 71.128906 8.121094 L 70.945312 8.121094 L 71.128906 8.121094 L 70.945312 8.121094 L 70.945312 8.144531 C 70.945312 9.019531 70.761719 9.839844 70.453125 10.605469 L 70.792969 10.742188 L 71.148438 10.835938 C 71.183594 10.703125 71.195312 10.597656 71.210938 10.527344 C 71.253906 10.339844 71.140625 10.148438 70.957031 10.097656 C 70.773438 10.039062 70.574219 10.136719 70.507812 10.316406 C 69.933594 11.820312 68.824219 13.0625 67.398438 13.8125 C 67.277344 13.875 67.199219 14 67.203125 14.136719 C 67.203125 14.273438 67.277344 14.398438 67.398438 14.460938 C 68.457031 15.007812 69.355469 15.824219 69.988281 16.820312 C 70.621094 17.816406 70.988281 18.988281 70.992188 20.257812 L 70.992188 20.261719 C 70.992188 20.261719 70.992188 20.273438 70.988281 20.292969 C 70.984375 20.328125 70.984375 20.359375 70.988281 20.390625 C 70.992188 20.414062 70.996094 20.425781 70.996094 20.425781 L 71.203125 20.390625 L 70.992188 20.390625 C 70.992188 20.414062 70.996094 20.425781 70.996094 20.425781 L 71.203125 20.390625 L 70.992188 20.390625 L 71.328125 20.390625 L 70.992188 20.386719 L 70.992188 20.390625 L 71.328125 20.390625 L 70.992188 20.386719 C 70.992188 20.386719 70.988281 20.40625 70.996094 20.441406 L 71.359375 20.394531 L 70.992188 20.390625 C 70.992188 20.453125 70.976562 20.546875 70.96875 20.675781 C 70.964844 20.792969 70.960938 20.898438 70.949219 20.988281 L 70.949219 21 C 70.855469 22.011719 70.546875 22.957031 70.050781 23.78125 L 70.367188 23.96875 L 70.699219 24.132812 L 70.367188 23.96875 L 70.683594 24.160156 C 71.238281 23.238281 71.582031 22.183594 71.683594 21.066406 L 71.316406 21.03125 L 71.679688 21.078125 C 71.699219 20.945312 71.703125 20.820312 71.707031 20.707031 C 71.707031 20.636719 71.726562 20.535156 71.726562 20.398438 L 71.726562 20.347656 L 71.367188 20.394531 L 71.726562 20.394531 C 71.726562 20.386719 71.726562 20.371094 71.726562 20.347656 L 71.367188 20.394531 L 71.726562 20.394531 L 71.390625 20.394531 L 71.726562 20.398438 L 71.726562 20.394531 L 71.390625 20.394531 L 71.726562 20.398438 L 71.726562 20.390625 C 71.726562 20.355469 71.722656 20.328125 71.71875 20.3125 L 71.71875 20.292969 L 71.601562 20.3125 L 71.71875 20.296875 L 71.71875 20.292969 L 71.601562 20.3125 L 71.71875 20.296875 L 71.355469 20.34375 L 71.71875 20.394531 C 71.722656 20.363281 71.730469 20.320312 71.730469 20.261719 L 71.730469 20.253906 C 71.726562 18.847656 71.3125 17.535156 70.609375 16.425781 C 69.90625 15.320312 68.910156 14.414062 67.738281 13.808594 L 67.570312 14.136719 L 67.742188 14.460938 C 69.324219 13.628906 70.558594 12.25 71.195312 10.578125 L 70.851562 10.449219 L 70.492188 10.367188 C 70.464844 10.492188 70.453125 10.589844 70.4375 10.648438 C 70.386719 10.835938 70.492188 11.03125 70.675781 11.09375 C 70.863281 11.152344 71.0625 11.0625 71.132812 10.882812 C 71.476562 10.039062 71.683594 9.121094 71.679688 8.144531 L 71.679688 8.128906 L 71.507812 8.128906 L 71.679688 8.128906 L 71.507812 8.128906 L 71.679688 8.128906 L 71.683594 8.121094 C 71.679688 8.0625 71.675781 8.039062 71.675781 8.039062 L 71.308594 8.0625 L 71.675781 8.074219 L 71.664062 8.074219 L 71.675781 8.078125 L 71.675781 8.074219 L 71.664062 8.074219 L 71.675781 8.078125 C 71.675781 8.074219 71.679688 8.050781 71.683594 8 L 71.683594 7.988281 C 71.664062 3.964844 68.390625 0.707031 64.347656 0.707031 L 64.320312 0.707031 C 62.492188 0.710938 60.824219 1.386719 59.550781 2.496094 C 58.273438 3.605469 57.390625 5.148438 57.117188 6.890625 L 57.484375 6.945312 L 57.484375 6.582031 L 21.691406 6.363281 L 21.691406 6.730469 L 22.054688 6.679688 C 21.804688 4.933594 20.941406 3.378906 19.679688 2.257812 C 18.417969 1.132812 16.761719 0.4375 14.929688 0.410156 L 14.933594 0.410156 C 14.890625 0.40625 14.847656 0.40625 14.808594 0.40625 C 10.8125 0.40625 7.546875 3.609375 7.480469 7.601562 L 7.847656 7.605469 L 7.480469 7.574219 L 7.480469 7.613281 C 7.480469 7.664062 7.484375 7.6875 7.484375 7.6875 L 7.851562 7.675781 L 7.484375 7.65625 L 7.484375 7.675781 C 7.480469 7.6875 7.480469 7.707031 7.480469 7.734375 L 7.480469 7.769531 L 7.847656 7.746094 L 7.480469 7.738281 C 7.480469 7.777344 7.480469 7.820312 7.480469 7.859375 C 7.480469 9.21875 7.859375 10.488281 8.519531 11.570312 C 9.175781 12.65625 10.113281 13.558594 11.222656 14.183594 L 11.40625 13.867188 L 11.234375 13.542969 C 10.085938 14.140625 9.109375 15.027344 8.414062 16.113281 C 7.71875 17.199219 7.304688 18.484375 7.285156 19.867188 L 7.652344 19.875 L 7.285156 19.847656 C 7.285156 19.867188 7.285156 19.878906 7.285156 19.882812 C 7.285156 19.914062 7.285156 19.9375 7.285156 19.953125 L 7.285156 19.964844 L 7.65625 19.964844 L 7.289062 19.933594 L 7.285156 19.980469 L 7.285156 19.984375 C 7.28125 20.011719 7.285156 20.023438 7.285156 20.023438 C 7.285156 20.121094 7.296875 20.171875 7.296875 20.179688 L 7.664062 20.167969 L 7.296875 20.175781 C 7.300781 20.410156 7.320312 20.636719 7.34375 20.859375 L 7.710938 20.820312 L 7.34375 20.855469 C 7.660156 23.960938 9.910156 26.507812 12.914062 27.222656 C 13.097656 27.269531 13.285156 27.167969 13.347656 26.988281 C 13.410156 26.8125 13.328125 26.613281 13.15625 26.535156 C 13.007812 26.46875 12.855469 26.371094 12.679688 26.273438 L 12.496094 26.59375 L 12.382812 26.941406 C 13.054688 27.15625 13.769531 27.28125 14.511719 27.289062 C 14.550781 27.289062 14.585938 27.289062 14.621094 27.289062 C 16.433594 27.292969 18.09375 26.632812 19.371094 25.539062 C 20.648438 24.445312 21.546875 22.921875 21.835938 21.183594 L 21.472656 21.125 L 21.46875 21.492188 L 57.523438 21.710938 L 57.527344 21.34375 L 57.160156 21.398438 C 57.433594 23.152344 58.324219 24.699219 59.605469 25.808594 C 60.882812 26.917969 62.558594 27.59375 64.390625 27.589844 L 64.410156 27.589844 C 67.273438 27.578125 69.742188 25.9375 70.941406 23.554688 L 70.613281 23.386719 L 70.265625 23.261719 C 70.195312 23.453125 70.121094 23.636719 70.035156 23.808594 C 69.949219 23.984375 70.015625 24.199219 70.191406 24.292969 C 70.363281 24.386719 70.582031 24.328125 70.683594 24.160156 L 70.367188 23.96875 " fill-opacity="1" fill-rule="nonzero"/></g><path fill="#000000" d="M 27.261719 11.441406 C 27.117188 10.332031 25.339844 10.320312 25.484375 11.441406 C 25.648438 12.738281 25.460938 14.898438 24.074219 15.558594 C 22.582031 16.269531 22.6875 12.03125 22.734375 11.324219 C 22.816406 10.191406 21.039062 10.203125 20.957031 11.324219 C 20.816406 13.316406 21.027344 17.910156 24.144531 17.378906 C 26.667969 16.953125 27.535156 13.566406 27.261719 11.441406 Z M 27.261719 11.441406 " fill-opacity="0.4" fill-rule="nonzero"/><path fill="#000000" d="M 33.113281 10.992188 C 32.921875 12.265625 32.699219 13.542969 32.460938 14.804688 L 31.40625 12.398438 C 31.097656 11.675781 29.972656 11.9375 29.785156 12.609375 C 29.285156 14.449219 28.859375 16.316406 28.503906 18.179688 C 28.289062 19.300781 30.007812 19.773438 30.222656 18.652344 C 30.410156 17.625 30.636719 16.597656 30.875 15.570312 C 31.253906 16.433594 31.621094 17.28125 32 18.144531 C 32.308594 18.851562 33.46875 18.640625 33.621094 17.929688 C 34.097656 15.796875 34.5 13.636719 34.820312 11.464844 C 34.984375 10.355469 33.265625 9.871094 33.113281 10.992188 Z M 33.113281 10.992188 " fill-opacity="0.4" fill-rule="nonzero"/><path fill="#000000" d="M 36.558594 10.886719 C 36.324219 13.011719 36.144531 15.148438 36.027344 17.28125 C 35.953125 18.425781 37.734375 18.414062 37.804688 17.28125 C 37.921875 15.148438 38.101562 13.011719 38.335938 10.886719 C 38.457031 9.753906 36.679688 9.753906 36.558594 10.886719 Z M 36.558594 10.886719 " fill-opacity="0.4" fill-rule="nonzero"/><path fill="#000000" d="M 43.726562 10.097656 C 43.003906 9.8125 42.152344 9.695312 41.417969 9.964844 C 40.574219 10.285156 40.28125 10.992188 40.183594 11.832031 C 39.9375 13.941406 39.746094 16.066406 39.535156 18.179688 C 39.414062 19.3125 41.191406 19.3125 41.3125 18.179688 C 41.40625 17.28125 41.488281 16.386719 41.582031 15.5 C 43.125 15.855469 44.890625 15.289062 45.597656 13.789062 C 46.382812 12.160156 45.230469 10.699219 43.726562 10.097656 Z M 41.773438 13.707031 C 41.808594 13.378906 41.832031 13.035156 41.867188 12.703125 C 41.890625 12.457031 41.855469 12.042969 41.960938 11.832031 C 42.070312 11.605469 41.9375 11.652344 42.199219 11.582031 C 42.804688 11.40625 44.140625 12.078125 44.082031 12.761719 C 44 13.847656 42.554688 13.941406 41.773438 13.707031 Z M 41.773438 13.707031 " fill-opacity="0.4" fill-rule="nonzero"/><path fill="#000000" d="M 51.390625 15.65625 C 50.574219 15.621094 49.757812 15.65625 48.953125 15.726562 C 49.011719 15.277344 49.082031 14.828125 49.140625 14.378906 C 49.542969 14.378906 49.945312 14.390625 50.347656 14.4375 C 50.835938 14.484375 51.238281 14.003906 51.238281 13.554688 C 51.238281 13.035156 50.835938 12.714844 50.347656 12.667969 C 50.042969 12.632812 49.734375 12.621094 49.414062 12.609375 C 49.484375 12.160156 49.566406 11.703125 49.640625 11.242188 C 50.242188 11.242188 50.835938 11.265625 51.441406 11.300781 C 52.578125 11.382812 52.578125 9.613281 51.441406 9.53125 C 50.585938 9.472656 49.722656 9.457031 48.871094 9.492188 C 48.535156 9.492188 48.300781 9.660156 48.15625 9.882812 C 48.097656 9.976562 48.050781 10.097656 48.027344 10.226562 C 47.636719 12.398438 47.316406 14.570312 47.042969 16.738281 C 46.960938 17.378906 47.671875 17.671875 48.171875 17.601562 C 49.234375 17.425781 50.316406 17.378906 51.390625 17.425781 C 52.53125 17.472656 52.53125 15.699219 51.390625 15.65625 Z M 51.390625 15.65625 " fill-opacity="0.4" fill-rule="nonzero"/><path fill="#000000" d="M 58.273438 10.035156 C 56.960938 9.871094 55.644531 9.847656 54.316406 9.976562 C 53.191406 10.097656 53.179688 11.867188 54.316406 11.75 C 54.671875 11.714844 55.015625 11.6875 55.359375 11.675781 C 55.253906 13.398438 55.160156 15.136719 55.054688 16.859375 C 54.980469 17.992188 56.757812 17.992188 56.828125 16.859375 C 56.9375 15.136719 57.03125 13.425781 57.136719 11.703125 C 57.515625 11.722656 57.894531 11.761719 58.273438 11.808594 C 59.414062 11.949219 59.402344 10.179688 58.273438 10.035156 Z M 58.273438 10.035156 " fill-opacity="0.4" fill-rule="nonzero"/><path fill="#ffffff" d="M 26.738281 10.917969 C 26.59375 9.8125 24.816406 9.800781 24.960938 10.917969 C 25.125 12.21875 24.9375 14.378906 23.550781 15.039062 C 22.058594 15.746094 22.164062 11.507812 22.210938 10.800781 C 22.292969 9.667969 20.515625 9.679688 20.433594 10.800781 C 20.292969 12.796875 20.503906 17.386719 23.621094 16.855469 C 26.144531 16.429688 27.011719 13.042969 26.738281 10.917969 Z M 26.738281 10.917969 " fill-opacity="1" fill-rule="nonzero"/><path fill="#ffffff" d="M 32.589844 10.472656 C 32.398438 11.746094 32.175781 13.019531 31.9375 14.28125 L 30.882812 11.875 C 30.574219 11.15625 29.449219 11.414062 29.261719 12.089844 C 28.761719 13.929688 28.335938 15.792969 27.980469 17.65625 C 27.765625 18.777344 29.484375 19.25 29.699219 18.128906 C 29.886719 17.101562 30.113281 16.078125 30.351562 15.050781 C 30.730469 15.910156 31.097656 16.761719 31.476562 17.625 C 31.785156 18.332031 32.945312 18.117188 33.097656 17.410156 C 33.574219 15.273438 33.976562 13.113281 34.296875 10.945312 C 34.460938 9.835938 32.742188 9.351562 32.589844 10.472656 Z M 32.589844 10.472656 " fill-opacity="1" fill-rule="nonzero"/><path fill="#ffffff" d="M 36.035156 10.363281 C 35.800781 12.488281 35.621094 14.625 35.503906 16.761719 C 35.429688 17.90625 37.207031 17.894531 37.28125 16.761719 C 37.398438 14.625 37.578125 12.488281 37.8125 10.363281 C 37.933594 9.230469 36.15625 9.230469 36.035156 10.363281 Z M 36.035156 10.363281 " fill-opacity="1" fill-rule="nonzero"/><path fill="#ffffff" d="M 43.203125 9.574219 C 42.480469 9.292969 41.628906 9.171875 40.894531 9.445312 C 40.050781 9.761719 39.757812 10.472656 39.660156 11.308594 C 39.414062 13.421875 39.222656 15.546875 39.007812 17.65625 C 38.890625 18.789062 40.667969 18.789062 40.789062 17.65625 C 40.882812 16.761719 40.964844 15.863281 41.058594 14.980469 C 42.597656 15.332031 44.367188 14.765625 45.074219 13.269531 C 45.859375 11.640625 44.707031 10.175781 43.203125 9.574219 Z M 41.25 13.183594 C 41.285156 12.855469 41.308594 12.511719 41.34375 12.183594 C 41.367188 11.933594 41.332031 11.523438 41.4375 11.308594 C 41.546875 11.085938 41.414062 11.132812 41.675781 11.0625 C 42.28125 10.886719 43.617188 11.558594 43.558594 12.242188 C 43.476562 13.328125 42.03125 13.421875 41.25 13.183594 Z M 41.25 13.183594 " fill-opacity="1" fill-rule="nonzero"/><path fill="#ffffff" d="M 50.867188 15.132812 C 50.050781 15.097656 49.234375 15.132812 48.425781 15.203125 C 48.488281 14.753906 48.558594 14.308594 48.617188 13.859375 C 49.019531 13.859375 49.421875 13.871094 49.824219 13.917969 C 50.3125 13.964844 50.714844 13.480469 50.714844 13.03125 C 50.714844 12.511719 50.3125 12.195312 49.824219 12.148438 C 49.519531 12.113281 49.210938 12.101562 48.890625 12.089844 C 48.960938 11.640625 49.042969 11.179688 49.113281 10.71875 C 49.71875 10.71875 50.3125 10.742188 50.914062 10.777344 C 52.054688 10.859375 52.054688 9.089844 50.914062 9.007812 C 50.0625 8.949219 49.199219 8.9375 48.34375 8.972656 C 48.011719 8.972656 47.777344 9.136719 47.632812 9.363281 C 47.574219 9.457031 47.527344 9.574219 47.503906 9.703125 C 47.113281 11.875 46.792969 14.046875 46.519531 16.21875 C 46.4375 16.855469 47.148438 17.152344 47.644531 17.082031 C 48.710938 16.902344 49.789062 16.855469 50.867188 16.902344 C 52.003906 16.949219 52.003906 15.179688 50.867188 15.132812 Z M 50.867188 15.132812 " fill-opacity="1" fill-rule="nonzero"/><path fill="#ffffff" d="M 57.75 9.515625 C 56.4375 9.351562 55.121094 9.328125 53.792969 9.457031 C 52.667969 9.574219 52.65625 11.34375 53.792969 11.226562 C 54.148438 11.191406 54.492188 11.167969 54.835938 11.15625 C 54.730469 12.878906 54.636719 14.613281 54.527344 16.335938 C 54.457031 17.46875 56.234375 17.46875 56.304688 16.335938 C 56.414062 14.613281 56.507812 12.902344 56.613281 11.179688 C 56.992188 11.203125 57.371094 11.238281 57.75 11.285156 C 58.886719 11.425781 58.878906 9.65625 57.75 9.515625 Z M 57.75 9.515625 " fill-opacity="1" fill-rule="nonzero"/><g clip-path="url(#e5e5b1223b)"><path fill="#ffffff" d="M 66.644531 20.453125 C 67.6875 20.0625 68.898438 20.144531 69.875 20.675781 C 70.617188 21.078125 71.230469 21.753906 71.460938 22.5625 C 71.796875 23.757812 71.226562 25.097656 70.222656 25.832031 C 69.21875 26.5625 67.863281 26.71875 66.65625 26.410156 C 65.453125 26.105469 64.394531 25.367188 63.527344 24.476562 C 62.445312 23.359375 61.574219 21.941406 60.152344 21.300781 C 59.21875 20.875 58.0625 20.867188 57.203125 21.425781 C 56.339844 21.976562 55.867188 23.140625 56.25 24.09375 C 56.417969 24.523438 56.746094 24.886719 57.121094 25.15625 C 57.890625 25.707031 58.90625 25.898438 59.824219 25.667969 C 59.496094 25.28125 59.296875 24.753906 59.425781 24.261719 C 59.558594 23.773438 60.097656 23.386719 60.578125 23.53125 C 61.015625 23.664062 61.25 24.121094 61.4375 24.53125 C 61.597656 24.136719 62.042969 23.878906 62.464844 23.929688 C 62.890625 23.988281 63.253906 24.355469 63.304688 24.777344 C 63.347656 25.117188 63.199219 25.464844 62.972656 25.726562 C 62.746094 25.988281 62.453125 26.183594 62.152344 26.359375 C 61.816406 26.558594 61.464844 26.746094 61.105469 26.910156 C 60.867188 27.019531 60.625 26.769531 60.496094 26.546875 C 60.359375 26.316406 60.164062 26.046875 59.910156 26.105469 C 58.777344 26.359375 57.519531 26.195312 56.582031 25.507812 C 55.648438 24.820312 55.105469 23.578125 55.398438 22.457031 C 55.511719 22.027344 55.734375 21.632812 56.023438 21.292969 C 56.976562 20.179688 58.605469 19.792969 60.042969 20.09375 C 61.480469 20.394531 62.734375 21.300781 63.707031 22.394531 C 64.136719 22.875 64.515625 23.394531 64.957031 23.859375 C 65.507812 24.4375 66.15625 24.933594 66.910156 25.214844 C 67.660156 25.488281 68.511719 25.523438 69.25 25.214844 C 69.984375 24.898438 70.574219 24.210938 70.667969 23.421875 C 70.773438 22.511719 70.207031 21.601562 69.40625 21.148438 C 68.605469 20.695312 67.625 20.644531 66.726562 20.847656 C 66.910156 21.085938 67.105469 21.402344 66.949219 21.664062 C 66.832031 21.851562 66.578125 21.902344 66.355469 21.890625 C 66.132812 21.875 65.910156 21.820312 65.691406 21.871094 C 65.417969 21.929688 65.210938 22.152344 64.988281 22.320312 C 64.765625 22.488281 64.445312 22.609375 64.207031 22.464844 C 63.96875 22.320312 63.933594 21.988281 63.957031 21.710938 C 63.988281 21.285156 64.097656 20.847656 64.367188 20.519531 C 64.632812 20.1875 65.085938 19.980469 65.5 20.097656 C 65.894531 20.207031 66.257812 20.597656 66.644531 20.453125 " fill-opacity="1" fill-rule="nonzero"/></g><path fill="#ffffff" d="M 67.027344 19.085938 C 67.113281 19.398438 67.042969 19.75 66.839844 20.007812 C 66.78125 20.085938 66.707031 20.15625 66.613281 20.191406 C 66.4375 20.261719 66.226562 20.199219 66.09375 20.0625 C 65.964844 19.929688 65.902344 19.738281 65.890625 19.546875 C 65.882812 19.375 65.910156 19.195312 65.976562 19.03125 C 66.066406 18.8125 66.253906 18.605469 66.492188 18.597656 C 66.75 18.59375 66.957031 18.835938 67.027344 19.085938 " fill-opacity="1" fill-rule="nonzero"/><path fill="#ffffff" d="M 63.289062 21.242188 C 62.996094 21.183594 62.742188 20.96875 62.601562 20.703125 C 62.535156 20.574219 62.492188 20.433594 62.5 20.289062 C 62.507812 20.148438 62.570312 20.003906 62.6875 19.921875 C 62.847656 19.8125 63.0625 19.832031 63.238281 19.898438 C 63.527344 20.015625 63.757812 20.261719 63.855469 20.5625 C 63.921875 20.773438 63.902344 21.035156 63.726562 21.171875 C 63.609375 21.265625 63.441406 21.273438 63.289062 21.242188 " fill-opacity="1" fill-rule="nonzero"/><g clip-path="url(#ff88e7cb0e)"><path fill="#ffffff" d="M 64.601562 18.875 C 64.570312 18.800781 64.546875 18.726562 64.53125 18.648438 C 64.492188 18.457031 64.507812 18.253906 64.570312 18.0625 C 64.632812 17.890625 64.746094 17.71875 64.921875 17.65625 C 65.066406 17.605469 65.234375 17.636719 65.367188 17.71875 C 65.492188 17.804688 65.589844 17.933594 65.65625 18.070312 C 65.78125 18.347656 65.792969 18.671875 65.6875 18.957031 C 65.628906 19.121094 65.519531 19.28125 65.355469 19.34375 C 65.203125 19.402344 65.023438 19.363281 64.890625 19.269531 C 64.753906 19.171875 64.660156 19.03125 64.601562 18.875 " fill-opacity="1" fill-rule="nonzero"/></g><path fill="#ffffff" d="M 64.359375 19.476562 C 64.277344 19.683594 64.035156 19.796875 63.816406 19.773438 C 63.59375 19.75 63.394531 19.609375 63.265625 19.429688 C 63.132812 19.25 63.058594 19.039062 63 18.824219 C 62.949219 18.621094 63.03125 18.390625 63.203125 18.265625 C 63.371094 18.140625 63.621094 18.132812 63.796875 18.246094 C 64.136719 18.464844 64.390625 18.832031 64.398438 19.234375 C 64.398438 19.316406 64.390625 19.398438 64.359375 19.476562 " fill-opacity="1" fill-rule="nonzero"/><g clip-path="url(#05356e8074)"><path fill="#ffffff" d="M 17.84375 3.261719 C 18.882812 2.871094 20.097656 2.953125 21.074219 3.484375 C 21.816406 3.886719 22.429688 4.5625 22.660156 5.371094 C 22.996094 6.5625 22.425781 7.90625 21.421875 8.640625 C 20.417969 9.367188 19.0625 9.527344 17.855469 9.21875 C 16.652344 8.910156 15.59375 8.175781 14.726562 7.285156 C 13.640625 6.167969 12.773438 4.746094 11.351562 4.105469 C 10.417969 3.683594 9.261719 3.671875 8.402344 4.230469 C 7.535156 4.785156 7.066406 5.949219 7.449219 6.898438 C 7.617188 7.332031 7.945312 7.691406 8.320312 7.964844 C 9.089844 8.515625 10.105469 8.707031 11.019531 8.476562 C 10.695312 8.089844 10.496094 7.558594 10.625 7.070312 C 10.757812 6.582031 11.292969 6.195312 11.78125 6.339844 C 12.21875 6.46875 12.449219 6.925781 12.636719 7.339844 C 12.796875 6.945312 13.242188 6.6875 13.664062 6.738281 C 14.089844 6.792969 14.453125 7.160156 14.503906 7.585938 C 14.542969 7.925781 14.398438 8.273438 14.171875 8.535156 C 13.945312 8.796875 13.652344 8.988281 13.351562 9.167969 C 13.011719 9.367188 12.660156 9.550781 12.304688 9.71875 C 12.066406 9.824219 11.824219 9.578125 11.691406 9.351562 C 11.558594 9.125 11.363281 8.855469 11.109375 8.914062 C 9.972656 9.167969 8.71875 9.003906 7.78125 8.316406 C 6.847656 7.625 6.304688 6.382812 6.597656 5.261719 C 6.710938 4.835938 6.933594 4.4375 7.222656 4.101562 C 8.175781 2.988281 9.804688 2.597656 11.242188 2.898438 C 12.679688 3.203125 13.933594 4.105469 14.90625 5.203125 C 15.332031 5.679688 15.714844 6.199219 16.15625 6.667969 C 16.707031 7.246094 17.355469 7.742188 18.105469 8.019531 C 18.855469 8.292969 19.710938 8.332031 20.445312 8.019531 C 21.183594 7.707031 21.773438 7.019531 21.863281 6.226562 C 21.972656 5.316406 21.40625 4.410156 20.605469 3.957031 C 19.808594 3.503906 18.828125 3.449219 17.925781 3.652344 C 18.109375 3.890625 18.300781 4.210938 18.144531 4.46875 C 18.027344 4.660156 17.777344 4.710938 17.554688 4.699219 C 17.332031 4.683594 17.109375 4.628906 16.890625 4.675781 C 16.617188 4.738281 16.410156 4.957031 16.183594 5.125 C 15.960938 5.296875 15.644531 5.417969 15.40625 5.273438 C 15.164062 5.125 15.132812 4.792969 15.15625 4.515625 C 15.1875 4.09375 15.296875 3.65625 15.5625 3.324219 C 15.832031 2.992188 16.285156 2.789062 16.699219 2.90625 C 17.09375 3.015625 17.457031 3.402344 17.84375 3.261719 " fill-opacity="1" fill-rule="nonzero"/></g><path fill="#ffffff" d="M 18.226562 1.894531 C 18.3125 2.207031 18.246094 2.558594 18.039062 2.8125 C 17.980469 2.890625 17.902344 2.960938 17.8125 3 C 17.636719 3.070312 17.425781 3.003906 17.292969 2.871094 C 17.164062 2.734375 17.101562 2.542969 17.089844 2.355469 C 17.078125 2.179688 17.109375 2 17.175781 1.835938 C 17.265625 1.621094 17.453125 1.414062 17.691406 1.40625 C 17.949219 1.402344 18.15625 1.644531 18.226562 1.894531 " fill-opacity="1" fill-rule="nonzero"/><path fill="#ffffff" d="M 14.488281 4.050781 C 14.195312 3.988281 13.941406 3.777344 13.800781 3.507812 C 13.734375 3.382812 13.691406 3.242188 13.699219 3.097656 C 13.707031 2.953125 13.769531 2.808594 13.886719 2.726562 C 14.046875 2.621094 14.261719 2.636719 14.4375 2.707031 C 14.726562 2.824219 14.957031 3.070312 15.050781 3.367188 C 15.121094 3.578125 15.101562 3.84375 14.925781 3.976562 C 14.808594 4.074219 14.640625 4.082031 14.488281 4.050781 " fill-opacity="1" fill-rule="nonzero"/><g clip-path="url(#e733b25098)"><path fill="#ffffff" d="M 15.796875 1.683594 C 15.769531 1.609375 15.746094 1.535156 15.730469 1.457031 C 15.691406 1.261719 15.707031 1.058594 15.769531 0.871094 C 15.832031 0.695312 15.945312 0.527344 16.117188 0.464844 C 16.265625 0.410156 16.433594 0.445312 16.566406 0.527344 C 16.691406 0.609375 16.789062 0.742188 16.855469 0.878906 C 16.980469 1.15625 16.992188 1.480469 16.886719 1.765625 C 16.828125 1.929688 16.722656 2.085938 16.554688 2.148438 C 16.402344 2.207031 16.222656 2.167969 16.089844 2.074219 C 15.953125 1.980469 15.859375 1.835938 15.796875 1.683594 " fill-opacity="1" fill-rule="nonzero"/></g><path fill="#ffffff" d="M 15.558594 2.285156 C 15.476562 2.488281 15.234375 2.601562 15.011719 2.582031 C 14.792969 2.558594 14.59375 2.417969 14.464844 2.234375 C 14.332031 2.058594 14.257812 1.84375 14.199219 1.632812 C 14.148438 1.425781 14.230469 1.195312 14.398438 1.070312 C 14.570312 0.945312 14.816406 0.9375 14.996094 1.054688 C 15.335938 1.269531 15.589844 1.640625 15.597656 2.042969 C 15.597656 2.121094 15.589844 2.207031 15.558594 2.285156 " fill-opacity="1" fill-rule="nonzero"/></svg>